<svg width="52" height="50" viewBox="0 0 52 50" fill="none" xmlns="http://www.w3.org/2000/svg">
<rect width="51.6768" height="50" rx="8" fill="#2405F2"/>
<mask id="mask0_706_699" style="mask-type:alpha" maskUnits="userSpaceOnUse" x="0" y="0" width="52" height="50">
<rect width="51.6768" height="50" rx="8" fill="#5C5E84"/>
</mask>
<g mask="url(#mask0_706_699)">
<rect x="-26.8721" y="27" width="51.6768" height="50" rx="8" fill="#FCD980"/>
<rect x="8.26855" y="-9" width="51.6768" height="50" rx="8" fill="#5239FA"/>
</g>
<path d="M16.5829 24.268C16.5829 22.192 16.9309 20.572 17.6269 19.408C18.3349 18.232 19.5469 17.644 21.2629 17.644C22.9789 17.644 24.1849 18.232 24.8809 19.408C25.5889 20.572 25.9429 22.192 25.9429 24.268C25.9429 26.368 25.5889 28.012 24.8809 29.2C24.1849 30.376 22.9789 30.964 21.2629 30.964C19.5469 30.964 18.3349 30.376 17.6269 29.2C16.9309 28.012 16.5829 26.368 16.5829 24.268ZM23.9269 24.268C23.9269 23.296 23.8609 22.474 23.7289 21.802C23.6089 21.13 23.3569 20.584 22.9729 20.164C22.5889 19.732 22.0189 19.516 21.2629 19.516C20.5069 19.516 19.9369 19.732 19.5529 20.164C19.1689 20.584 18.9109 21.13 18.7789 21.802C18.6589 22.474 18.5989 23.296 18.5989 24.268C18.5989 25.276 18.6589 26.122 18.7789 26.806C18.8989 27.49 19.1509 28.042 19.5349 28.462C19.9309 28.882 20.5069 29.092 21.2629 29.092C22.0189 29.092 22.5889 28.882 22.9729 28.462C23.3689 28.042 23.6269 27.49 23.7469 26.806C23.8669 26.122 23.9269 25.276 23.9269 24.268ZM28.0782 21.118C28.1502 20.002 28.5762 19.132 29.3562 18.508C30.1482 17.884 31.1562 17.572 32.3802 17.572C33.2202 17.572 33.9462 17.722 34.5582 18.022C35.1702 18.322 35.6322 18.73 35.9442 19.246C36.2562 19.762 36.4122 20.344 36.4122 20.992C36.4122 21.736 36.2142 22.372 35.8182 22.9C35.4222 23.428 34.9482 23.782 34.3962 23.962V24.034C35.1042 24.25 35.6562 24.646 36.0522 25.222C36.4482 25.786 36.6462 26.512 36.6462 27.4C36.6462 28.108 36.4842 28.738 36.1602 29.29C35.8362 29.842 35.3562 30.28 34.7202 30.604C34.0842 30.916 33.3222 31.072 32.4342 31.072C31.1382 31.072 30.0702 30.742 29.2302 30.082C28.4022 29.41 27.9582 28.45 27.8982 27.202H29.8782C29.9262 27.838 30.1722 28.36 30.6162 28.768C31.0602 29.164 31.6602 29.362 32.4162 29.362C33.1482 29.362 33.7122 29.164 34.1082 28.768C34.5042 28.36 34.7022 27.838 34.7022 27.202C34.7022 26.362 34.4322 25.768 33.8922 25.42C33.3642 25.06 32.5482 24.88 31.4442 24.88H30.9762V23.188H31.4622C32.4342 23.176 33.1722 23.014 33.6762 22.702C34.1922 22.39 34.4502 21.898 34.4502 21.226C34.4502 20.65 34.2642 20.194 33.8922 19.858C33.5202 19.51 32.9922 19.336 32.3082 19.336C31.6362 19.336 31.1142 19.51 30.7422 19.858C30.3702 20.194 30.1482 20.614 30.0762 21.118H28.0782Z" fill="white"/>
</svg>
