<?xml version="1.0" encoding="utf-8"?>
<!-- Generator: Adobe Illustrator 27.5.0, SVG Export Plug-In . SVG Version: 6.00 Build 0)  -->
<svg version="1.1" xmlns="http://www.w3.org/2000/svg" xmlns:xlink="http://www.w3.org/1999/xlink" x="0px" y="0px"
	 viewBox="0 0 500 500" style="enable-background:new 0 0 500 500;" xml:space="preserve">
<g id="Background_Simple">
	<g>
		<path style="fill:#92E3A9;" d="M490.08,266.599c0.082-1.078,0.167-2.15,0.306-3.219c1.497-11.491,8.481-97.868-100.024-206.504
			c-116.617-116.757-244.061,14.382-266.075,48.66s-28.427,86.918-45.419,52.279c-10.505-21.414,16.876-48.228-21.908-37.027
			c-24.884,7.187-71.103,70.778-33.215,180.04C61.632,410.091,168.049,493.443,270.32,487.363
			c131.514-7.818,208.952-103.196,202.805-110.287c-6.147-7.091-55.13,14.063-44.368-0.671
			C439.351,361.901,486.989,307.14,490.08,266.599z"/>
		<path style="opacity:0.7;fill:#FFFFFF;" d="M490.08,266.599c0.082-1.078,0.167-2.15,0.306-3.219
			c1.497-11.491,8.481-97.868-100.024-206.504c-116.617-116.757-244.061,14.382-266.075,48.66s-28.427,86.918-45.419,52.279
			c-10.505-21.414,16.876-48.228-21.908-37.027c-24.884,7.187-71.103,70.778-33.215,180.04
			C61.632,410.091,168.049,493.443,270.32,487.363c131.514-7.818,208.952-103.196,202.805-110.287
			c-6.147-7.091-55.13,14.063-44.368-0.671C439.351,361.901,486.989,307.14,490.08,266.599z"/>
	</g>
</g>
<g id="Screen">
	<g>
		<path style="fill:none;stroke:#263238;stroke-linecap:round;stroke-linejoin:round;stroke-miterlimit:10;" d="M346.216,475.054
			H165.965c-9.549,0-17.29-7.741-17.29-17.29V50.062c0-9.549,7.741-17.29,17.29-17.29h180.251c9.549,0,17.29,7.741,17.29,17.29
			v407.701C363.506,467.313,355.765,475.054,346.216,475.054z"/>
		<path style="fill:none;stroke:#263238;stroke-linecap:round;stroke-linejoin:round;stroke-miterlimit:10;" d="M290.197,53.919
			h-68.213c-4.325,0-8.271-2.468-10.164-6.356l-7.2-14.79h102.941l-7.2,14.79C298.468,51.451,294.522,53.919,290.197,53.919z"/>
	</g>
</g>
<g id="Codes">
	<g>
		<g>
			<path style="fill:#92E3A9;" d="M16.251,367.203h-3.903c-0.532,0-0.963-0.431-0.963-0.963c0-0.532,0.431-0.962,0.963-0.962h3.903
				c0.532,0,0.963,0.431,0.963,0.962C17.214,366.773,16.783,367.203,16.251,367.203z M17.214,370.701
				c0-0.532-0.431-0.962-0.963-0.962h-3.903c-0.532,0-0.963,0.43-0.963,0.962c0,0.532,0.431,0.963,0.963,0.963h3.903
				C16.783,371.664,17.214,371.233,17.214,370.701z M17.214,375.162c0-0.532-0.431-0.963-0.963-0.963h-3.903
				c-0.532,0-0.963,0.431-0.963,0.963c0,0.532,0.431,0.963,0.963,0.963h3.903C16.783,376.125,17.214,375.694,17.214,375.162z
				 M17.214,379.623c0-0.532-0.431-0.963-0.963-0.963h-3.903c-0.532,0-0.963,0.431-0.963,0.963c0,0.532,0.431,0.963,0.963,0.963
				h3.903C16.783,380.585,17.214,380.155,17.214,379.623z M17.214,384.083c0-0.532-0.431-0.963-0.963-0.963h-3.903
				c-0.532,0-0.963,0.431-0.963,0.963c0,0.532,0.431,0.962,0.963,0.962h3.903C16.783,385.046,17.214,384.615,17.214,384.083z
				 M17.214,388.545c0-0.532-0.431-0.963-0.963-0.963h-3.903c-0.532,0-0.963,0.431-0.963,0.963s0.431,0.963,0.963,0.963h3.903
				C16.783,389.507,17.214,389.077,17.214,388.545z M17.214,393.005c0-0.532-0.431-0.963-0.963-0.963h-3.903
				c-0.532,0-0.963,0.43-0.963,0.963s0.431,0.963,0.963,0.963h3.903C16.783,393.968,17.214,393.537,17.214,393.005z M17.214,397.466
				c0-0.532-0.431-0.963-0.963-0.963h-3.903c-0.532,0-0.963,0.43-0.963,0.963c0,0.532,0.431,0.963,0.963,0.963h3.903
				C16.783,398.428,17.214,397.998,17.214,397.466z M31.816,366.241c0-0.532-0.431-0.962-0.962-0.962H20.607
				c-0.532,0-0.962,0.431-0.962,0.962c0,0.532,0.431,0.963,0.962,0.963h10.246C31.385,367.203,31.816,366.773,31.816,366.241z
				 M31.816,370.701c0-0.532-0.431-0.962-0.962-0.962H20.607c-0.532,0-0.962,0.43-0.962,0.962c0,0.532,0.431,0.963,0.962,0.963
				h10.246C31.385,371.664,31.816,371.233,31.816,370.701z M31.816,375.162c0-0.532-0.431-0.963-0.962-0.963H20.607
				c-0.532,0-0.962,0.431-0.962,0.963c0,0.532,0.431,0.963,0.962,0.963h10.246C31.385,376.125,31.816,375.694,31.816,375.162z
				 M31.816,379.623c0-0.532-0.431-0.963-0.962-0.963H20.607c-0.532,0-0.962,0.431-0.962,0.963c0,0.532,0.431,0.963,0.962,0.963
				h10.246C31.385,380.585,31.816,380.155,31.816,379.623z M31.816,384.083c0-0.532-0.431-0.963-0.962-0.963H20.607
				c-0.532,0-0.962,0.431-0.962,0.963c0,0.532,0.431,0.962,0.962,0.962h10.246C31.385,385.046,31.816,384.615,31.816,384.083z
				 M44.083,388.545c0-0.532-0.43-0.963-0.963-0.963H32.875c-0.532,0-0.963,0.431-0.963,0.963s0.431,0.963,0.963,0.963H43.12
				C43.652,389.507,44.083,389.077,44.083,388.545z M44.083,393.005c0-0.532-0.43-0.963-0.963-0.963H32.875
				c-0.532,0-0.963,0.43-0.963,0.963s0.431,0.963,0.963,0.963H43.12C43.652,393.968,44.083,393.537,44.083,393.005z M44.083,397.466
				c0-0.532-0.43-0.963-0.963-0.963H32.875c-0.532,0-0.963,0.43-0.963,0.963c0,0.532,0.431,0.963,0.963,0.963H43.12
				C43.652,398.428,44.083,397.998,44.083,397.466z M36.325,366.241c0-0.616-0.499-1.115-1.115-1.115
				c-0.616,0-1.115,0.499-1.115,1.115s0.499,1.115,1.115,1.115C35.825,367.356,36.325,366.857,36.325,366.241z M39.67,366.241
				c0-0.616-0.499-1.115-1.115-1.115c-0.616,0-1.115,0.499-1.115,1.115s0.499,1.115,1.115,1.115
				C39.171,367.356,39.67,366.857,39.67,366.241z M43.016,366.241c0-0.616-0.499-1.115-1.115-1.115
				c-0.616,0-1.115,0.499-1.115,1.115s0.499,1.115,1.115,1.115C42.517,367.356,43.016,366.857,43.016,366.241z M46.361,366.241
				c0-0.616-0.499-1.115-1.115-1.115c-0.616,0-1.115,0.499-1.115,1.115s0.499,1.115,1.115,1.115
				C45.862,367.356,46.361,366.857,46.361,366.241z M49.707,366.241c0-0.616-0.499-1.115-1.115-1.115
				c-0.616,0-1.115,0.499-1.115,1.115s0.499,1.115,1.115,1.115C49.208,367.356,49.707,366.857,49.707,366.241z M53.053,366.241
				c0-0.616-0.499-1.115-1.115-1.115c-0.616,0-1.115,0.499-1.115,1.115s0.499,1.115,1.115,1.115
				C52.553,367.356,53.053,366.857,53.053,366.241z M36.325,375.162c0-0.616-0.499-1.115-1.115-1.115
				c-0.616,0-1.115,0.499-1.115,1.115c0,0.616,0.499,1.115,1.115,1.115C35.825,376.277,36.325,375.778,36.325,375.162z
				 M39.67,375.162c0-0.616-0.499-1.115-1.115-1.115c-0.616,0-1.115,0.499-1.115,1.115c0,0.616,0.499,1.115,1.115,1.115
				C39.171,376.277,39.67,375.778,39.67,375.162z M43.016,375.162c0-0.616-0.499-1.115-1.115-1.115
				c-0.616,0-1.115,0.499-1.115,1.115c0,0.616,0.499,1.115,1.115,1.115C42.517,376.277,43.016,375.778,43.016,375.162z
				 M46.361,375.162c0-0.616-0.499-1.115-1.115-1.115c-0.616,0-1.115,0.499-1.115,1.115c0,0.616,0.499,1.115,1.115,1.115
				C45.862,376.277,46.361,375.778,46.361,375.162z M49.707,375.162c0-0.616-0.499-1.115-1.115-1.115
				c-0.616,0-1.115,0.499-1.115,1.115c0,0.616,0.499,1.115,1.115,1.115C49.208,376.277,49.707,375.778,49.707,375.162z
				 M53.053,375.162c0-0.616-0.499-1.115-1.115-1.115c-0.616,0-1.115,0.499-1.115,1.115c0,0.616,0.499,1.115,1.115,1.115
				C52.553,376.277,53.053,375.778,53.053,375.162z M47.756,387.987c0-0.616-0.499-1.115-1.115-1.115
				c-0.616,0-1.115,0.5-1.115,1.115c0,0.616,0.499,1.115,1.115,1.115C47.256,389.102,47.756,388.603,47.756,387.987z
				 M51.101,387.987c0-0.616-0.499-1.115-1.115-1.115c-0.616,0-1.115,0.5-1.115,1.115c0,0.616,0.499,1.115,1.115,1.115
				C50.602,389.102,51.101,388.603,51.101,387.987z M54.447,387.987c0-0.616-0.499-1.115-1.115-1.115
				c-0.616,0-1.115,0.5-1.115,1.115c0,0.616,0.499,1.115,1.115,1.115C53.947,389.102,54.447,388.603,54.447,387.987z
				 M57.792,387.987c0-0.616-0.499-1.115-1.115-1.115c-0.616,0-1.115,0.5-1.115,1.115c0,0.616,0.499,1.115,1.115,1.115
				C57.293,389.102,57.792,388.603,57.792,387.987z M61.138,387.987c0-0.616-0.499-1.115-1.115-1.115
				c-0.616,0-1.115,0.5-1.115,1.115c0,0.616,0.499,1.115,1.115,1.115C60.638,389.102,61.138,388.603,61.138,387.987z
				 M64.483,387.987c0-0.616-0.499-1.115-1.115-1.115c-0.616,0-1.115,0.5-1.115,1.115c0,0.616,0.499,1.115,1.115,1.115
				C63.984,389.102,64.483,388.603,64.483,387.987z M47.756,397.187c0-0.616-0.499-1.115-1.115-1.115
				c-0.616,0-1.115,0.499-1.115,1.115c0,0.616,0.499,1.115,1.115,1.115C47.256,398.302,47.756,397.803,47.756,397.187z
				 M51.101,397.187c0-0.616-0.499-1.115-1.115-1.115c-0.616,0-1.115,0.499-1.115,1.115c0,0.616,0.499,1.115,1.115,1.115
				C50.602,398.302,51.101,397.803,51.101,397.187z M54.447,397.187c0-0.616-0.499-1.115-1.115-1.115
				c-0.616,0-1.115,0.499-1.115,1.115c0,0.616,0.499,1.115,1.115,1.115C53.947,398.302,54.447,397.803,54.447,397.187z
				 M57.792,397.187c0-0.616-0.499-1.115-1.115-1.115c-0.616,0-1.115,0.499-1.115,1.115c0,0.616,0.499,1.115,1.115,1.115
				C57.293,398.302,57.792,397.803,57.792,397.187z M61.138,397.187c0-0.616-0.499-1.115-1.115-1.115
				c-0.616,0-1.115,0.499-1.115,1.115c0,0.616,0.499,1.115,1.115,1.115C60.638,398.302,61.138,397.803,61.138,397.187z
				 M64.483,397.187c0-0.616-0.499-1.115-1.115-1.115c-0.616,0-1.115,0.499-1.115,1.115c0,0.616,0.499,1.115,1.115,1.115
				C63.984,398.302,64.483,397.803,64.483,397.187z"/>
			<path style="fill:#92E3A9;" d="M16.251,402.899h-3.903c-0.532,0-0.963-0.431-0.963-0.963c0-0.532,0.431-0.963,0.963-0.963h3.903
				c0.532,0,0.963,0.431,0.963,0.963C17.214,402.468,16.783,402.899,16.251,402.899z M17.214,406.397
				c0-0.532-0.431-0.963-0.963-0.963h-3.903c-0.532,0-0.963,0.431-0.963,0.963c0,0.532,0.431,0.963,0.963,0.963h3.903
				C16.783,407.359,17.214,406.928,17.214,406.397z M17.214,410.857c0-0.532-0.431-0.962-0.963-0.962h-3.903
				c-0.532,0-0.963,0.43-0.963,0.962c0,0.532,0.431,0.963,0.963,0.963h3.903C16.783,411.82,17.214,411.389,17.214,410.857z
				 M17.214,415.318c0-0.532-0.431-0.963-0.963-0.963h-3.903c-0.532,0-0.963,0.431-0.963,0.963c0,0.532,0.431,0.962,0.963,0.962
				h3.903C16.783,416.28,17.214,415.85,17.214,415.318z M17.214,419.779c0-0.532-0.431-0.963-0.963-0.963h-3.903
				c-0.532,0-0.963,0.431-0.963,0.963c0,0.532,0.431,0.962,0.963,0.962h3.903C16.783,420.741,17.214,420.31,17.214,419.779z
				 M17.214,424.24c0-0.532-0.431-0.963-0.963-0.963h-3.903c-0.532,0-0.963,0.43-0.963,0.963c0,0.532,0.431,0.963,0.963,0.963h3.903
				C16.783,425.203,17.214,424.772,17.214,424.24z M17.214,428.701c0-0.532-0.431-0.963-0.963-0.963h-3.903
				c-0.532,0-0.963,0.431-0.963,0.963s0.431,0.962,0.963,0.962h3.903C16.783,429.663,17.214,429.233,17.214,428.701z
				 M17.214,433.161c0-0.532-0.431-0.963-0.963-0.963h-3.903c-0.532,0-0.963,0.431-0.963,0.963c0,0.532,0.431,0.962,0.963,0.962
				h3.903C16.783,434.124,17.214,433.693,17.214,433.161z M31.816,401.936c0-0.532-0.431-0.963-0.962-0.963H20.607
				c-0.532,0-0.962,0.431-0.962,0.963c0,0.532,0.431,0.963,0.962,0.963h10.246C31.385,402.899,31.816,402.468,31.816,401.936z
				 M31.816,406.397c0-0.532-0.431-0.963-0.962-0.963H20.607c-0.532,0-0.962,0.431-0.962,0.963c0,0.532,0.431,0.963,0.962,0.963
				h10.246C31.385,407.359,31.816,406.928,31.816,406.397z M31.816,410.857c0-0.532-0.431-0.962-0.962-0.962H20.607
				c-0.532,0-0.962,0.43-0.962,0.962c0,0.532,0.431,0.963,0.962,0.963h10.246C31.385,411.82,31.816,411.389,31.816,410.857z
				 M31.816,415.318c0-0.532-0.431-0.963-0.962-0.963H20.607c-0.532,0-0.962,0.431-0.962,0.963c0,0.532,0.431,0.962,0.962,0.962
				h10.246C31.385,416.28,31.816,415.85,31.816,415.318z M31.816,419.779c0-0.532-0.431-0.963-0.962-0.963H20.607
				c-0.532,0-0.962,0.431-0.962,0.963c0,0.532,0.431,0.962,0.962,0.962h10.246C31.385,420.741,31.816,420.31,31.816,419.779z
				 M44.083,424.24c0-0.532-0.43-0.963-0.963-0.963H32.875c-0.532,0-0.963,0.43-0.963,0.963c0,0.532,0.431,0.963,0.963,0.963H43.12
				C43.652,425.203,44.083,424.772,44.083,424.24z M44.083,428.701c0-0.532-0.43-0.963-0.963-0.963H32.875
				c-0.532,0-0.963,0.431-0.963,0.963s0.431,0.962,0.963,0.962H43.12C43.652,429.663,44.083,429.233,44.083,428.701z
				 M44.083,433.161c0-0.532-0.43-0.963-0.963-0.963H32.875c-0.532,0-0.963,0.431-0.963,0.963c0,0.532,0.431,0.962,0.963,0.962
				H43.12C43.652,434.124,44.083,433.693,44.083,433.161z M36.325,401.936c0-0.616-0.499-1.115-1.115-1.115
				c-0.616,0-1.115,0.499-1.115,1.115c0,0.616,0.499,1.115,1.115,1.115C35.825,403.051,36.325,402.552,36.325,401.936z
				 M39.67,401.936c0-0.616-0.499-1.115-1.115-1.115c-0.616,0-1.115,0.499-1.115,1.115c0,0.616,0.499,1.115,1.115,1.115
				C39.171,403.051,39.67,402.552,39.67,401.936z M43.016,401.936c0-0.616-0.499-1.115-1.115-1.115
				c-0.616,0-1.115,0.499-1.115,1.115c0,0.616,0.499,1.115,1.115,1.115C42.517,403.051,43.016,402.552,43.016,401.936z
				 M46.361,401.936c0-0.616-0.499-1.115-1.115-1.115c-0.616,0-1.115,0.499-1.115,1.115c0,0.616,0.499,1.115,1.115,1.115
				C45.862,403.051,46.361,402.552,46.361,401.936z M49.707,401.936c0-0.616-0.499-1.115-1.115-1.115
				c-0.616,0-1.115,0.499-1.115,1.115c0,0.616,0.499,1.115,1.115,1.115C49.208,403.051,49.707,402.552,49.707,401.936z
				 M53.053,401.936c0-0.616-0.499-1.115-1.115-1.115c-0.616,0-1.115,0.499-1.115,1.115c0,0.616,0.499,1.115,1.115,1.115
				C52.553,403.051,53.053,402.552,53.053,401.936z M36.325,410.857c0-0.616-0.499-1.115-1.115-1.115
				c-0.616,0-1.115,0.499-1.115,1.115c0,0.616,0.499,1.115,1.115,1.115C35.825,411.973,36.325,411.473,36.325,410.857z
				 M39.67,410.857c0-0.616-0.499-1.115-1.115-1.115c-0.616,0-1.115,0.499-1.115,1.115c0,0.616,0.499,1.115,1.115,1.115
				C39.171,411.973,39.67,411.473,39.67,410.857z M43.016,410.857c0-0.616-0.499-1.115-1.115-1.115
				c-0.616,0-1.115,0.499-1.115,1.115c0,0.616,0.499,1.115,1.115,1.115C42.517,411.973,43.016,411.473,43.016,410.857z
				 M46.361,410.857c0-0.616-0.499-1.115-1.115-1.115c-0.616,0-1.115,0.499-1.115,1.115c0,0.616,0.499,1.115,1.115,1.115
				C45.862,411.973,46.361,411.473,46.361,410.857z M49.707,410.857c0-0.616-0.499-1.115-1.115-1.115
				c-0.616,0-1.115,0.499-1.115,1.115c0,0.616,0.499,1.115,1.115,1.115C49.208,411.973,49.707,411.473,49.707,410.857z
				 M53.053,410.857c0-0.616-0.499-1.115-1.115-1.115c-0.616,0-1.115,0.499-1.115,1.115c0,0.616,0.499,1.115,1.115,1.115
				C52.553,411.973,53.053,411.473,53.053,410.857z M47.756,423.682c0-0.616-0.499-1.115-1.115-1.115
				c-0.616,0-1.115,0.499-1.115,1.115c0,0.616,0.499,1.115,1.115,1.115C47.256,424.797,47.756,424.298,47.756,423.682z
				 M51.101,423.682c0-0.616-0.499-1.115-1.115-1.115c-0.616,0-1.115,0.499-1.115,1.115c0,0.616,0.499,1.115,1.115,1.115
				C50.602,424.797,51.101,424.298,51.101,423.682z M54.447,423.682c0-0.616-0.499-1.115-1.115-1.115
				c-0.616,0-1.115,0.499-1.115,1.115c0,0.616,0.499,1.115,1.115,1.115C53.947,424.797,54.447,424.298,54.447,423.682z
				 M57.792,423.682c0-0.616-0.499-1.115-1.115-1.115c-0.616,0-1.115,0.499-1.115,1.115c0,0.616,0.499,1.115,1.115,1.115
				C57.293,424.797,57.792,424.298,57.792,423.682z M61.138,423.682c0-0.616-0.499-1.115-1.115-1.115
				c-0.616,0-1.115,0.499-1.115,1.115c0,0.616,0.499,1.115,1.115,1.115C60.638,424.797,61.138,424.298,61.138,423.682z
				 M64.483,423.682c0-0.616-0.499-1.115-1.115-1.115c-0.616,0-1.115,0.499-1.115,1.115c0,0.616,0.499,1.115,1.115,1.115
				C63.984,424.797,64.483,424.298,64.483,423.682z M47.756,432.882c0-0.616-0.499-1.115-1.115-1.115
				c-0.616,0-1.115,0.499-1.115,1.115s0.499,1.115,1.115,1.115C47.256,433.998,47.756,433.498,47.756,432.882z M51.101,432.882
				c0-0.616-0.499-1.115-1.115-1.115c-0.616,0-1.115,0.499-1.115,1.115s0.499,1.115,1.115,1.115
				C50.602,433.998,51.101,433.498,51.101,432.882z M54.447,432.882c0-0.616-0.499-1.115-1.115-1.115
				c-0.616,0-1.115,0.499-1.115,1.115s0.499,1.115,1.115,1.115C53.947,433.998,54.447,433.498,54.447,432.882z M57.792,432.882
				c0-0.616-0.499-1.115-1.115-1.115c-0.616,0-1.115,0.499-1.115,1.115s0.499,1.115,1.115,1.115
				C57.293,433.998,57.792,433.498,57.792,432.882z M61.138,432.882c0-0.616-0.499-1.115-1.115-1.115
				c-0.616,0-1.115,0.499-1.115,1.115s0.499,1.115,1.115,1.115C60.638,433.998,61.138,433.498,61.138,432.882z M64.483,432.882
				c0-0.616-0.499-1.115-1.115-1.115c-0.616,0-1.115,0.499-1.115,1.115s0.499,1.115,1.115,1.115
				C63.984,433.998,64.483,433.498,64.483,432.882z"/>
			<path style="fill:#92E3A9;" d="M16.251,439.456h-3.903c-0.532,0-0.963-0.431-0.963-0.963c0-0.532,0.431-0.963,0.963-0.963h3.903
				c0.532,0,0.963,0.431,0.963,0.963C17.214,439.025,16.783,439.456,16.251,439.456z M17.214,442.953
				c0-0.532-0.431-0.962-0.963-0.962h-3.903c-0.532,0-0.963,0.43-0.963,0.962c0,0.532,0.431,0.963,0.963,0.963h3.903
				C16.783,443.916,17.214,443.486,17.214,442.953z M17.214,447.414c0-0.532-0.431-0.963-0.963-0.963h-3.903
				c-0.532,0-0.963,0.431-0.963,0.963c0,0.532,0.431,0.963,0.963,0.963h3.903C16.783,448.377,17.214,447.946,17.214,447.414z
				 M17.214,451.875c0-0.532-0.431-0.963-0.963-0.963h-3.903c-0.532,0-0.963,0.431-0.963,0.963c0,0.532,0.431,0.962,0.963,0.962
				h3.903C16.783,452.837,17.214,452.407,17.214,451.875z M17.214,456.335c0-0.532-0.431-0.963-0.963-0.963h-3.903
				c-0.532,0-0.963,0.431-0.963,0.963c0,0.532,0.431,0.963,0.963,0.963h3.903C16.783,457.298,17.214,456.867,17.214,456.335z
				 M17.214,460.797c0-0.532-0.431-0.963-0.963-0.963h-3.903c-0.532,0-0.963,0.431-0.963,0.963c0,0.532,0.431,0.963,0.963,0.963
				h3.903C16.783,461.76,17.214,461.329,17.214,460.797z M17.214,465.258c0-0.532-0.431-0.963-0.963-0.963h-3.903
				c-0.532,0-0.963,0.43-0.963,0.963c0,0.532,0.431,0.962,0.963,0.962h3.903C16.783,466.22,17.214,465.789,17.214,465.258z
				 M17.214,469.718c0-0.532-0.431-0.963-0.963-0.963h-3.903c-0.532,0-0.963,0.431-0.963,0.963c0,0.532,0.431,0.962,0.963,0.962
				h3.903C16.783,470.681,17.214,470.25,17.214,469.718z M31.816,438.493c0-0.532-0.431-0.963-0.962-0.963H20.607
				c-0.532,0-0.962,0.431-0.962,0.963c0,0.532,0.431,0.963,0.962,0.963h10.246C31.385,439.456,31.816,439.025,31.816,438.493z
				 M31.816,442.953c0-0.532-0.431-0.962-0.962-0.962H20.607c-0.532,0-0.962,0.43-0.962,0.962c0,0.532,0.431,0.963,0.962,0.963
				h10.246C31.385,443.916,31.816,443.486,31.816,442.953z M31.816,447.414c0-0.532-0.431-0.963-0.962-0.963H20.607
				c-0.532,0-0.962,0.431-0.962,0.963c0,0.532,0.431,0.963,0.962,0.963h10.246C31.385,448.377,31.816,447.946,31.816,447.414z
				 M31.816,451.875c0-0.532-0.431-0.963-0.962-0.963H20.607c-0.532,0-0.962,0.431-0.962,0.963c0,0.532,0.431,0.962,0.962,0.962
				h10.246C31.385,452.837,31.816,452.407,31.816,451.875z M31.816,456.335c0-0.532-0.431-0.963-0.962-0.963H20.607
				c-0.532,0-0.962,0.431-0.962,0.963c0,0.532,0.431,0.963,0.962,0.963h10.246C31.385,457.298,31.816,456.867,31.816,456.335z
				 M44.083,460.797c0-0.532-0.43-0.963-0.963-0.963H32.875c-0.532,0-0.963,0.431-0.963,0.963c0,0.532,0.431,0.963,0.963,0.963
				H43.12C43.652,461.76,44.083,461.329,44.083,460.797z M44.083,465.258c0-0.532-0.43-0.963-0.963-0.963H32.875
				c-0.532,0-0.963,0.43-0.963,0.963c0,0.532,0.431,0.962,0.963,0.962H43.12C43.652,466.22,44.083,465.789,44.083,465.258z
				 M44.083,469.718c0-0.532-0.43-0.963-0.963-0.963H32.875c-0.532,0-0.963,0.431-0.963,0.963c0,0.532,0.431,0.962,0.963,0.962
				H43.12C43.652,470.681,44.083,470.25,44.083,469.718z M36.325,438.493c0-0.616-0.499-1.115-1.115-1.115
				c-0.616,0-1.115,0.5-1.115,1.115c0,0.616,0.499,1.115,1.115,1.115C35.825,439.608,36.325,439.109,36.325,438.493z M39.67,438.493
				c0-0.616-0.499-1.115-1.115-1.115c-0.616,0-1.115,0.5-1.115,1.115c0,0.616,0.499,1.115,1.115,1.115
				C39.171,439.608,39.67,439.109,39.67,438.493z M43.016,438.493c0-0.616-0.499-1.115-1.115-1.115c-0.616,0-1.115,0.5-1.115,1.115
				c0,0.616,0.499,1.115,1.115,1.115C42.517,439.608,43.016,439.109,43.016,438.493z M46.361,438.493
				c0-0.616-0.499-1.115-1.115-1.115c-0.616,0-1.115,0.5-1.115,1.115c0,0.616,0.499,1.115,1.115,1.115
				C45.862,439.608,46.361,439.109,46.361,438.493z M49.707,438.493c0-0.616-0.499-1.115-1.115-1.115
				c-0.616,0-1.115,0.5-1.115,1.115c0,0.616,0.499,1.115,1.115,1.115C49.208,439.608,49.707,439.109,49.707,438.493z
				 M53.053,438.493c0-0.616-0.499-1.115-1.115-1.115c-0.616,0-1.115,0.5-1.115,1.115c0,0.616,0.499,1.115,1.115,1.115
				C52.553,439.608,53.053,439.109,53.053,438.493z M36.325,447.414c0-0.616-0.499-1.115-1.115-1.115
				c-0.616,0-1.115,0.499-1.115,1.115c0,0.616,0.499,1.115,1.115,1.115C35.825,448.53,36.325,448.03,36.325,447.414z M39.67,447.414
				c0-0.616-0.499-1.115-1.115-1.115c-0.616,0-1.115,0.499-1.115,1.115c0,0.616,0.499,1.115,1.115,1.115
				C39.171,448.53,39.67,448.03,39.67,447.414z M43.016,447.414c0-0.616-0.499-1.115-1.115-1.115c-0.616,0-1.115,0.499-1.115,1.115
				c0,0.616,0.499,1.115,1.115,1.115C42.517,448.53,43.016,448.03,43.016,447.414z M46.361,447.414c0-0.616-0.499-1.115-1.115-1.115
				c-0.616,0-1.115,0.499-1.115,1.115c0,0.616,0.499,1.115,1.115,1.115C45.862,448.53,46.361,448.03,46.361,447.414z
				 M49.707,447.414c0-0.616-0.499-1.115-1.115-1.115c-0.616,0-1.115,0.499-1.115,1.115c0,0.616,0.499,1.115,1.115,1.115
				C49.208,448.53,49.707,448.03,49.707,447.414z M53.053,447.414c0-0.616-0.499-1.115-1.115-1.115
				c-0.616,0-1.115,0.499-1.115,1.115c0,0.616,0.499,1.115,1.115,1.115C52.553,448.53,53.053,448.03,53.053,447.414z
				 M47.756,460.239c0-0.616-0.499-1.115-1.115-1.115c-0.616,0-1.115,0.499-1.115,1.115c0,0.616,0.499,1.115,1.115,1.115
				C47.256,461.354,47.756,460.855,47.756,460.239z M51.101,460.239c0-0.616-0.499-1.115-1.115-1.115
				c-0.616,0-1.115,0.499-1.115,1.115c0,0.616,0.499,1.115,1.115,1.115C50.602,461.354,51.101,460.855,51.101,460.239z
				 M54.447,460.239c0-0.616-0.499-1.115-1.115-1.115c-0.616,0-1.115,0.499-1.115,1.115c0,0.616,0.499,1.115,1.115,1.115
				C53.947,461.354,54.447,460.855,54.447,460.239z M57.792,460.239c0-0.616-0.499-1.115-1.115-1.115
				c-0.616,0-1.115,0.499-1.115,1.115c0,0.616,0.499,1.115,1.115,1.115C57.293,461.354,57.792,460.855,57.792,460.239z
				 M61.138,460.239c0-0.616-0.499-1.115-1.115-1.115c-0.616,0-1.115,0.499-1.115,1.115c0,0.616,0.499,1.115,1.115,1.115
				C60.638,461.354,61.138,460.855,61.138,460.239z M64.483,460.239c0-0.616-0.499-1.115-1.115-1.115
				c-0.616,0-1.115,0.499-1.115,1.115c0,0.616,0.499,1.115,1.115,1.115C63.984,461.354,64.483,460.855,64.483,460.239z
				 M47.756,469.439c0-0.616-0.499-1.115-1.115-1.115c-0.616,0-1.115,0.499-1.115,1.115c0,0.616,0.499,1.115,1.115,1.115
				C47.256,470.555,47.756,470.055,47.756,469.439z M51.101,469.439c0-0.616-0.499-1.115-1.115-1.115
				c-0.616,0-1.115,0.499-1.115,1.115c0,0.616,0.499,1.115,1.115,1.115C50.602,470.555,51.101,470.055,51.101,469.439z
				 M54.447,469.439c0-0.616-0.499-1.115-1.115-1.115c-0.616,0-1.115,0.499-1.115,1.115c0,0.616,0.499,1.115,1.115,1.115
				C53.947,470.555,54.447,470.055,54.447,469.439z M57.792,469.439c0-0.616-0.499-1.115-1.115-1.115
				c-0.616,0-1.115,0.499-1.115,1.115c0,0.616,0.499,1.115,1.115,1.115C57.293,470.555,57.792,470.055,57.792,469.439z
				 M61.138,469.439c0-0.616-0.499-1.115-1.115-1.115c-0.616,0-1.115,0.499-1.115,1.115c0,0.616,0.499,1.115,1.115,1.115
				C60.638,470.555,61.138,470.055,61.138,469.439z M64.483,469.439c0-0.616-0.499-1.115-1.115-1.115
				c-0.616,0-1.115,0.499-1.115,1.115c0,0.616,0.499,1.115,1.115,1.115C63.984,470.555,64.483,470.055,64.483,469.439z"/>
			<path style="fill:#92E3A9;" d="M76.176,367.203h-3.903c-0.532,0-0.963-0.431-0.963-0.963c0-0.532,0.43-0.962,0.963-0.962h3.903
				c0.532,0,0.963,0.431,0.963,0.962C77.139,366.773,76.709,367.203,76.176,367.203z M77.139,370.701
				c0-0.532-0.43-0.962-0.963-0.962h-3.903c-0.532,0-0.963,0.43-0.963,0.962c0,0.532,0.43,0.963,0.963,0.963h3.903
				C76.709,371.664,77.139,371.233,77.139,370.701z M77.139,375.162c0-0.532-0.43-0.963-0.963-0.963h-3.903
				c-0.532,0-0.963,0.431-0.963,0.963c0,0.532,0.43,0.963,0.963,0.963h3.903C76.709,376.125,77.139,375.694,77.139,375.162z
				 M77.139,379.623c0-0.532-0.43-0.963-0.963-0.963h-3.903c-0.532,0-0.963,0.431-0.963,0.963c0,0.532,0.43,0.963,0.963,0.963h3.903
				C76.709,380.585,77.139,380.155,77.139,379.623z M77.139,384.083c0-0.532-0.43-0.963-0.963-0.963h-3.903
				c-0.532,0-0.963,0.431-0.963,0.963c0,0.532,0.43,0.962,0.963,0.962h3.903C76.709,385.046,77.139,384.615,77.139,384.083z
				 M77.139,388.545c0-0.532-0.43-0.963-0.963-0.963h-3.903c-0.532,0-0.963,0.431-0.963,0.963s0.43,0.963,0.963,0.963h3.903
				C76.709,389.507,77.139,389.077,77.139,388.545z M77.139,393.005c0-0.532-0.43-0.963-0.963-0.963h-3.903
				c-0.532,0-0.963,0.43-0.963,0.963s0.43,0.963,0.963,0.963h3.903C76.709,393.968,77.139,393.537,77.139,393.005z M77.139,397.466
				c0-0.532-0.43-0.963-0.963-0.963h-3.903c-0.532,0-0.963,0.43-0.963,0.963c0,0.532,0.43,0.963,0.963,0.963h3.903
				C76.709,398.428,77.139,397.998,77.139,397.466z M91.741,366.241c0-0.532-0.431-0.962-0.963-0.962H80.533
				c-0.532,0-0.963,0.431-0.963,0.962c0,0.532,0.431,0.963,0.963,0.963h10.246C91.311,367.203,91.741,366.773,91.741,366.241z
				 M91.741,370.701c0-0.532-0.431-0.962-0.963-0.962H80.533c-0.532,0-0.963,0.43-0.963,0.962c0,0.532,0.431,0.963,0.963,0.963
				h10.246C91.311,371.664,91.741,371.233,91.741,370.701z M91.741,375.162c0-0.532-0.431-0.963-0.963-0.963H80.533
				c-0.532,0-0.963,0.431-0.963,0.963c0,0.532,0.431,0.963,0.963,0.963h10.246C91.311,376.125,91.741,375.694,91.741,375.162z
				 M91.741,379.623c0-0.532-0.431-0.963-0.963-0.963H80.533c-0.532,0-0.963,0.431-0.963,0.963c0,0.532,0.431,0.963,0.963,0.963
				h10.246C91.311,380.585,91.741,380.155,91.741,379.623z M91.741,384.083c0-0.532-0.431-0.963-0.963-0.963H80.533
				c-0.532,0-0.963,0.431-0.963,0.963c0,0.532,0.431,0.962,0.963,0.962h10.246C91.311,385.046,91.741,384.615,91.741,384.083z
				 M104.008,388.545c0-0.532-0.43-0.963-0.963-0.963H92.8c-0.532,0-0.963,0.431-0.963,0.963s0.431,0.963,0.963,0.963h10.246
				C103.577,389.507,104.008,389.077,104.008,388.545z M104.008,393.005c0-0.532-0.43-0.963-0.963-0.963H92.8
				c-0.532,0-0.963,0.43-0.963,0.963s0.431,0.963,0.963,0.963h10.246C103.577,393.968,104.008,393.537,104.008,393.005z
				 M104.008,397.466c0-0.532-0.43-0.963-0.963-0.963H92.8c-0.532,0-0.963,0.43-0.963,0.963c0,0.532,0.431,0.963,0.963,0.963h10.246
				C103.577,398.428,104.008,397.998,104.008,397.466z M96.25,366.241c0-0.616-0.499-1.115-1.115-1.115
				c-0.616,0-1.115,0.499-1.115,1.115s0.499,1.115,1.115,1.115C95.751,367.356,96.25,366.857,96.25,366.241z M99.595,366.241
				c0-0.616-0.499-1.115-1.115-1.115c-0.616,0-1.115,0.499-1.115,1.115s0.5,1.115,1.115,1.115
				C99.096,367.356,99.595,366.857,99.595,366.241z M102.941,366.241c0-0.616-0.499-1.115-1.115-1.115
				c-0.616,0-1.115,0.499-1.115,1.115s0.499,1.115,1.115,1.115C102.442,367.356,102.941,366.857,102.941,366.241z M106.286,366.241
				c0-0.616-0.499-1.115-1.115-1.115c-0.616,0-1.115,0.499-1.115,1.115s0.499,1.115,1.115,1.115
				C105.787,367.356,106.286,366.857,106.286,366.241z M109.632,366.241c0-0.616-0.499-1.115-1.115-1.115
				c-0.616,0-1.115,0.499-1.115,1.115s0.499,1.115,1.115,1.115C109.133,367.356,109.632,366.857,109.632,366.241z M112.978,366.241
				c0-0.616-0.499-1.115-1.116-1.115c-0.616,0-1.115,0.499-1.115,1.115s0.499,1.115,1.115,1.115
				C112.479,367.356,112.978,366.857,112.978,366.241z M96.25,375.162c0-0.616-0.499-1.115-1.115-1.115
				c-0.616,0-1.115,0.499-1.115,1.115c0,0.616,0.499,1.115,1.115,1.115C95.751,376.277,96.25,375.778,96.25,375.162z
				 M99.595,375.162c0-0.616-0.499-1.115-1.115-1.115c-0.616,0-1.115,0.499-1.115,1.115c0,0.616,0.5,1.115,1.115,1.115
				C99.096,376.277,99.595,375.778,99.595,375.162z M102.941,375.162c0-0.616-0.499-1.115-1.115-1.115
				c-0.616,0-1.115,0.499-1.115,1.115c0,0.616,0.499,1.115,1.115,1.115C102.442,376.277,102.941,375.778,102.941,375.162z
				 M106.286,375.162c0-0.616-0.499-1.115-1.115-1.115c-0.616,0-1.115,0.499-1.115,1.115c0,0.616,0.499,1.115,1.115,1.115
				C105.787,376.277,106.286,375.778,106.286,375.162z M109.632,375.162c0-0.616-0.499-1.115-1.115-1.115
				c-0.616,0-1.115,0.499-1.115,1.115c0,0.616,0.499,1.115,1.115,1.115C109.133,376.277,109.632,375.778,109.632,375.162z
				 M112.978,375.162c0-0.616-0.499-1.115-1.116-1.115c-0.616,0-1.115,0.499-1.115,1.115c0,0.616,0.499,1.115,1.115,1.115
				C112.479,376.277,112.978,375.778,112.978,375.162z M107.681,387.987c0-0.616-0.499-1.115-1.115-1.115
				c-0.616,0-1.115,0.5-1.115,1.115c0,0.616,0.499,1.115,1.115,1.115C107.181,389.102,107.681,388.603,107.681,387.987z
				 M111.026,387.987c0-0.616-0.499-1.115-1.115-1.115c-0.616,0-1.115,0.5-1.115,1.115c0,0.616,0.499,1.115,1.115,1.115
				C110.527,389.102,111.026,388.603,111.026,387.987z M114.372,387.987c0-0.616-0.499-1.115-1.115-1.115
				c-0.616,0-1.115,0.5-1.115,1.115c0,0.616,0.499,1.115,1.115,1.115C113.872,389.102,114.372,388.603,114.372,387.987z
				 M117.717,387.987c0-0.616-0.499-1.115-1.115-1.115c-0.616,0-1.115,0.5-1.115,1.115c0,0.616,0.499,1.115,1.115,1.115
				C117.218,389.102,117.717,388.603,117.717,387.987z M121.063,387.987c0-0.616-0.499-1.115-1.115-1.115
				c-0.616,0-1.115,0.5-1.115,1.115c0,0.616,0.499,1.115,1.115,1.115C120.563,389.102,121.063,388.603,121.063,387.987z
				 M124.408,387.987c0-0.616-0.499-1.115-1.115-1.115s-1.115,0.5-1.115,1.115c0,0.616,0.499,1.115,1.115,1.115
				S124.408,388.603,124.408,387.987z M107.681,397.187c0-0.616-0.499-1.115-1.115-1.115c-0.616,0-1.115,0.499-1.115,1.115
				c0,0.616,0.499,1.115,1.115,1.115C107.181,398.302,107.681,397.803,107.681,397.187z M111.026,397.187
				c0-0.616-0.499-1.115-1.115-1.115c-0.616,0-1.115,0.499-1.115,1.115c0,0.616,0.499,1.115,1.115,1.115
				C110.527,398.302,111.026,397.803,111.026,397.187z M114.372,397.187c0-0.616-0.499-1.115-1.115-1.115
				c-0.616,0-1.115,0.499-1.115,1.115c0,0.616,0.499,1.115,1.115,1.115C113.872,398.302,114.372,397.803,114.372,397.187z
				 M117.717,397.187c0-0.616-0.499-1.115-1.115-1.115c-0.616,0-1.115,0.499-1.115,1.115c0,0.616,0.499,1.115,1.115,1.115
				C117.218,398.302,117.717,397.803,117.717,397.187z M121.063,397.187c0-0.616-0.499-1.115-1.115-1.115
				c-0.616,0-1.115,0.499-1.115,1.115c0,0.616,0.499,1.115,1.115,1.115C120.563,398.302,121.063,397.803,121.063,397.187z
				 M124.408,397.187c0-0.616-0.499-1.115-1.115-1.115s-1.115,0.499-1.115,1.115c0,0.616,0.499,1.115,1.115,1.115
				S124.408,397.803,124.408,397.187z"/>
			<path style="fill:#92E3A9;" d="M76.176,403.76h-3.903c-0.532,0-0.963-0.431-0.963-0.963c0-0.532,0.43-0.962,0.963-0.962h3.903
				c0.532,0,0.963,0.43,0.963,0.962C77.139,403.33,76.709,403.76,76.176,403.76z M77.139,407.258c0-0.532-0.43-0.962-0.963-0.962
				h-3.903c-0.532,0-0.963,0.431-0.963,0.962c0,0.532,0.43,0.963,0.963,0.963h3.903C76.709,408.221,77.139,407.791,77.139,407.258z
				 M77.139,411.719c0-0.532-0.43-0.963-0.963-0.963h-3.903c-0.532,0-0.963,0.431-0.963,0.963c0,0.532,0.43,0.963,0.963,0.963h3.903
				C76.709,412.682,77.139,412.251,77.139,411.719z M77.139,416.18c0-0.532-0.43-0.963-0.963-0.963h-3.903
				c-0.532,0-0.963,0.43-0.963,0.963c0,0.532,0.43,0.962,0.963,0.962h3.903C76.709,417.142,77.139,416.711,77.139,416.18z
				 M77.139,420.64c0-0.532-0.43-0.963-0.963-0.963h-3.903c-0.532,0-0.963,0.431-0.963,0.963c0,0.532,0.43,0.963,0.963,0.963h3.903
				C76.709,421.603,77.139,421.172,77.139,420.64z M77.139,425.102c0-0.532-0.43-0.962-0.963-0.962h-3.903
				c-0.532,0-0.963,0.43-0.963,0.962c0,0.532,0.43,0.963,0.963,0.963h3.903C76.709,426.064,77.139,425.634,77.139,425.102z
				 M77.139,429.563c0-0.532-0.43-0.963-0.963-0.963h-3.903c-0.532,0-0.963,0.431-0.963,0.963c0,0.532,0.43,0.962,0.963,0.962h3.903
				C76.709,430.525,77.139,430.094,77.139,429.563z M77.139,434.023c0-0.532-0.43-0.963-0.963-0.963h-3.903
				c-0.532,0-0.963,0.431-0.963,0.963c0,0.532,0.43,0.963,0.963,0.963h3.903C76.709,434.986,77.139,434.555,77.139,434.023z
				 M91.741,402.798c0-0.532-0.431-0.962-0.963-0.962H80.533c-0.532,0-0.963,0.43-0.963,0.962c0,0.532,0.431,0.963,0.963,0.963
				h10.246C91.311,403.76,91.741,403.33,91.741,402.798z M91.741,407.258c0-0.532-0.431-0.962-0.963-0.962H80.533
				c-0.532,0-0.963,0.431-0.963,0.962c0,0.532,0.431,0.963,0.963,0.963h10.246C91.311,408.221,91.741,407.791,91.741,407.258z
				 M91.741,411.719c0-0.532-0.431-0.963-0.963-0.963H80.533c-0.532,0-0.963,0.431-0.963,0.963c0,0.532,0.431,0.963,0.963,0.963
				h10.246C91.311,412.682,91.741,412.251,91.741,411.719z M91.741,416.18c0-0.532-0.431-0.963-0.963-0.963H80.533
				c-0.532,0-0.963,0.43-0.963,0.963c0,0.532,0.431,0.962,0.963,0.962h10.246C91.311,417.142,91.741,416.711,91.741,416.18z
				 M91.741,420.64c0-0.532-0.431-0.963-0.963-0.963H80.533c-0.532,0-0.963,0.431-0.963,0.963c0,0.532,0.431,0.963,0.963,0.963
				h10.246C91.311,421.603,91.741,421.172,91.741,420.64z M104.008,425.102c0-0.532-0.43-0.962-0.963-0.962H92.8
				c-0.532,0-0.963,0.43-0.963,0.962c0,0.532,0.431,0.963,0.963,0.963h10.246C103.577,426.064,104.008,425.634,104.008,425.102z
				 M104.008,429.563c0-0.532-0.43-0.963-0.963-0.963H92.8c-0.532,0-0.963,0.431-0.963,0.963c0,0.532,0.431,0.962,0.963,0.962
				h10.246C103.577,430.525,104.008,430.094,104.008,429.563z M104.008,434.023c0-0.532-0.43-0.963-0.963-0.963H92.8
				c-0.532,0-0.963,0.431-0.963,0.963c0,0.532,0.431,0.963,0.963,0.963h10.246C103.577,434.986,104.008,434.555,104.008,434.023z
				 M96.25,402.798c0-0.616-0.499-1.115-1.115-1.115c-0.616,0-1.115,0.5-1.115,1.115c0,0.616,0.499,1.115,1.115,1.115
				C95.751,403.913,96.25,403.414,96.25,402.798z M99.595,402.798c0-0.616-0.499-1.115-1.115-1.115c-0.616,0-1.115,0.5-1.115,1.115
				c0,0.616,0.5,1.115,1.115,1.115C99.096,403.913,99.595,403.414,99.595,402.798z M102.941,402.798
				c0-0.616-0.499-1.115-1.115-1.115c-0.616,0-1.115,0.5-1.115,1.115c0,0.616,0.499,1.115,1.115,1.115
				C102.442,403.913,102.941,403.414,102.941,402.798z M106.286,402.798c0-0.616-0.499-1.115-1.115-1.115
				c-0.616,0-1.115,0.5-1.115,1.115c0,0.616,0.499,1.115,1.115,1.115C105.787,403.913,106.286,403.414,106.286,402.798z
				 M109.632,402.798c0-0.616-0.499-1.115-1.115-1.115c-0.616,0-1.115,0.5-1.115,1.115c0,0.616,0.499,1.115,1.115,1.115
				C109.133,403.913,109.632,403.414,109.632,402.798z M112.978,402.798c0-0.616-0.499-1.115-1.116-1.115
				c-0.616,0-1.115,0.5-1.115,1.115c0,0.616,0.499,1.115,1.115,1.115C112.479,403.913,112.978,403.414,112.978,402.798z
				 M96.25,411.719c0-0.616-0.499-1.115-1.115-1.115c-0.616,0-1.115,0.499-1.115,1.115c0,0.616,0.499,1.115,1.115,1.115
				C95.751,412.834,96.25,412.335,96.25,411.719z M99.595,411.719c0-0.616-0.499-1.115-1.115-1.115
				c-0.616,0-1.115,0.499-1.115,1.115c0,0.616,0.5,1.115,1.115,1.115C99.096,412.834,99.595,412.335,99.595,411.719z
				 M102.941,411.719c0-0.616-0.499-1.115-1.115-1.115c-0.616,0-1.115,0.499-1.115,1.115c0,0.616,0.499,1.115,1.115,1.115
				C102.442,412.834,102.941,412.335,102.941,411.719z M106.286,411.719c0-0.616-0.499-1.115-1.115-1.115
				c-0.616,0-1.115,0.499-1.115,1.115c0,0.616,0.499,1.115,1.115,1.115C105.787,412.834,106.286,412.335,106.286,411.719z
				 M109.632,411.719c0-0.616-0.499-1.115-1.115-1.115c-0.616,0-1.115,0.499-1.115,1.115c0,0.616,0.499,1.115,1.115,1.115
				C109.133,412.834,109.632,412.335,109.632,411.719z M112.978,411.719c0-0.616-0.499-1.115-1.116-1.115
				c-0.616,0-1.115,0.499-1.115,1.115c0,0.616,0.499,1.115,1.115,1.115C112.479,412.834,112.978,412.335,112.978,411.719z
				 M107.681,424.544c0-0.616-0.499-1.115-1.115-1.115c-0.616,0-1.115,0.499-1.115,1.115c0,0.616,0.499,1.115,1.115,1.115
				C107.181,425.659,107.681,425.16,107.681,424.544z M111.026,424.544c0-0.616-0.499-1.115-1.115-1.115
				c-0.616,0-1.115,0.499-1.115,1.115c0,0.616,0.499,1.115,1.115,1.115C110.527,425.659,111.026,425.16,111.026,424.544z
				 M114.372,424.544c0-0.616-0.499-1.115-1.115-1.115c-0.616,0-1.115,0.499-1.115,1.115c0,0.616,0.499,1.115,1.115,1.115
				C113.872,425.659,114.372,425.16,114.372,424.544z M117.717,424.544c0-0.616-0.499-1.115-1.115-1.115
				c-0.616,0-1.115,0.499-1.115,1.115c0,0.616,0.499,1.115,1.115,1.115C117.218,425.659,117.717,425.16,117.717,424.544z
				 M121.063,424.544c0-0.616-0.499-1.115-1.115-1.115c-0.616,0-1.115,0.499-1.115,1.115c0,0.616,0.499,1.115,1.115,1.115
				C120.563,425.659,121.063,425.16,121.063,424.544z M124.408,424.544c0-0.616-0.499-1.115-1.115-1.115s-1.115,0.499-1.115,1.115
				c0,0.616,0.499,1.115,1.115,1.115S124.408,425.16,124.408,424.544z M107.681,433.744c0-0.616-0.499-1.115-1.115-1.115
				c-0.616,0-1.115,0.499-1.115,1.115c0,0.616,0.499,1.115,1.115,1.115C107.181,434.859,107.681,434.36,107.681,433.744z
				 M111.026,433.744c0-0.616-0.499-1.115-1.115-1.115c-0.616,0-1.115,0.499-1.115,1.115c0,0.616,0.499,1.115,1.115,1.115
				C110.527,434.859,111.026,434.36,111.026,433.744z M114.372,433.744c0-0.616-0.499-1.115-1.115-1.115
				c-0.616,0-1.115,0.499-1.115,1.115c0,0.616,0.499,1.115,1.115,1.115C113.872,434.859,114.372,434.36,114.372,433.744z
				 M117.717,433.744c0-0.616-0.499-1.115-1.115-1.115c-0.616,0-1.115,0.499-1.115,1.115c0,0.616,0.499,1.115,1.115,1.115
				C117.218,434.859,117.717,434.36,117.717,433.744z M121.063,433.744c0-0.616-0.499-1.115-1.115-1.115
				c-0.616,0-1.115,0.499-1.115,1.115c0,0.616,0.499,1.115,1.115,1.115C120.563,434.859,121.063,434.36,121.063,433.744z
				 M124.408,433.744c0-0.616-0.499-1.115-1.115-1.115s-1.115,0.499-1.115,1.115c0,0.616,0.499,1.115,1.115,1.115
				S124.408,434.36,124.408,433.744z"/>
		</g>
	</g>
	<g>
		<g>
			<path style="fill:#92E3A9;" d="M16.251,22.224h-3.903c-0.532,0-0.963-0.431-0.963-0.963c0-0.532,0.431-0.962,0.963-0.962h3.903
				c0.532,0,0.963,0.431,0.963,0.962C17.214,21.794,16.783,22.224,16.251,22.224z M17.214,25.722c0-0.532-0.431-0.962-0.963-0.962
				h-3.903c-0.532,0-0.963,0.43-0.963,0.962c0,0.532,0.431,0.963,0.963,0.963h3.903C16.783,26.685,17.214,26.254,17.214,25.722z
				 M17.214,30.183c0-0.532-0.431-0.963-0.963-0.963h-3.903c-0.532,0-0.963,0.431-0.963,0.963c0,0.532,0.431,0.963,0.963,0.963
				h3.903C16.783,31.145,17.214,30.715,17.214,30.183z M17.214,34.643c0-0.532-0.431-0.963-0.963-0.963h-3.903
				c-0.532,0-0.963,0.431-0.963,0.963c0,0.532,0.431,0.963,0.963,0.963h3.903C16.783,35.606,17.214,35.175,17.214,34.643z
				 M17.214,39.104c0-0.532-0.431-0.963-0.963-0.963h-3.903c-0.532,0-0.963,0.431-0.963,0.963c0,0.532,0.431,0.963,0.963,0.963
				h3.903C16.783,40.067,17.214,39.636,17.214,39.104z M17.214,43.565c0-0.532-0.431-0.963-0.963-0.963h-3.903
				c-0.532,0-0.963,0.431-0.963,0.963s0.431,0.963,0.963,0.963h3.903C16.783,44.528,17.214,44.097,17.214,43.565z M17.214,48.026
				c0-0.532-0.431-0.963-0.963-0.963h-3.903c-0.532,0-0.963,0.43-0.963,0.963s0.431,0.963,0.963,0.963h3.903
				C16.783,48.989,17.214,48.558,17.214,48.026z M17.214,52.487c0-0.532-0.431-0.962-0.963-0.962h-3.903
				c-0.532,0-0.963,0.43-0.963,0.962s0.431,0.963,0.963,0.963h3.903C16.783,53.449,17.214,53.019,17.214,52.487z M31.816,21.261
				c0-0.532-0.431-0.962-0.962-0.962H20.607c-0.532,0-0.962,0.431-0.962,0.962c0,0.532,0.431,0.963,0.962,0.963h10.246
				C31.385,22.224,31.816,21.794,31.816,21.261z M31.816,25.722c0-0.532-0.431-0.962-0.962-0.962H20.607
				c-0.532,0-0.962,0.43-0.962,0.962c0,0.532,0.431,0.963,0.962,0.963h10.246C31.385,26.685,31.816,26.254,31.816,25.722z
				 M31.816,30.183c0-0.532-0.431-0.963-0.962-0.963H20.607c-0.532,0-0.962,0.431-0.962,0.963c0,0.532,0.431,0.963,0.962,0.963
				h10.246C31.385,31.145,31.816,30.715,31.816,30.183z M31.816,34.643c0-0.532-0.431-0.963-0.962-0.963H20.607
				c-0.532,0-0.962,0.431-0.962,0.963c0,0.532,0.431,0.963,0.962,0.963h10.246C31.385,35.606,31.816,35.175,31.816,34.643z
				 M31.816,39.104c0-0.532-0.431-0.963-0.962-0.963H20.607c-0.532,0-0.962,0.431-0.962,0.963c0,0.532,0.431,0.963,0.962,0.963
				h10.246C31.385,40.067,31.816,39.636,31.816,39.104z M44.083,43.565c0-0.532-0.43-0.963-0.963-0.963H32.875
				c-0.532,0-0.963,0.431-0.963,0.963s0.431,0.963,0.963,0.963H43.12C43.652,44.528,44.083,44.097,44.083,43.565z M44.083,48.026
				c0-0.532-0.43-0.963-0.963-0.963H32.875c-0.532,0-0.963,0.43-0.963,0.963s0.431,0.963,0.963,0.963H43.12
				C43.652,48.989,44.083,48.558,44.083,48.026z M44.083,52.487c0-0.532-0.43-0.962-0.963-0.962H32.875
				c-0.532,0-0.963,0.43-0.963,0.962s0.431,0.963,0.963,0.963H43.12C43.652,53.449,44.083,53.019,44.083,52.487z M36.325,21.261
				c0-0.616-0.499-1.115-1.115-1.115c-0.616,0-1.115,0.499-1.115,1.115s0.499,1.115,1.115,1.115
				C35.825,22.377,36.325,21.877,36.325,21.261z M39.67,21.261c0-0.616-0.499-1.115-1.115-1.115c-0.616,0-1.115,0.499-1.115,1.115
				s0.499,1.115,1.115,1.115C39.171,22.377,39.67,21.877,39.67,21.261z M43.016,21.261c0-0.616-0.499-1.115-1.115-1.115
				c-0.616,0-1.115,0.499-1.115,1.115s0.499,1.115,1.115,1.115C42.517,22.377,43.016,21.877,43.016,21.261z M46.361,21.261
				c0-0.616-0.499-1.115-1.115-1.115c-0.616,0-1.115,0.499-1.115,1.115s0.499,1.115,1.115,1.115
				C45.862,22.377,46.361,21.877,46.361,21.261z M49.707,21.261c0-0.616-0.499-1.115-1.115-1.115c-0.616,0-1.115,0.499-1.115,1.115
				s0.499,1.115,1.115,1.115C49.208,22.377,49.707,21.877,49.707,21.261z M53.053,21.261c0-0.616-0.499-1.115-1.115-1.115
				c-0.616,0-1.115,0.499-1.115,1.115s0.499,1.115,1.115,1.115C52.553,22.377,53.053,21.877,53.053,21.261z M36.325,30.183
				c0-0.616-0.499-1.115-1.115-1.115c-0.616,0-1.115,0.499-1.115,1.115c0,0.616,0.499,1.115,1.115,1.115
				C35.825,31.298,36.325,30.799,36.325,30.183z M39.67,30.183c0-0.616-0.499-1.115-1.115-1.115c-0.616,0-1.115,0.499-1.115,1.115
				c0,0.616,0.499,1.115,1.115,1.115C39.171,31.298,39.67,30.799,39.67,30.183z M43.016,30.183c0-0.616-0.499-1.115-1.115-1.115
				c-0.616,0-1.115,0.499-1.115,1.115c0,0.616,0.499,1.115,1.115,1.115C42.517,31.298,43.016,30.799,43.016,30.183z M46.361,30.183
				c0-0.616-0.499-1.115-1.115-1.115c-0.616,0-1.115,0.499-1.115,1.115c0,0.616,0.499,1.115,1.115,1.115
				C45.862,31.298,46.361,30.799,46.361,30.183z M49.707,30.183c0-0.616-0.499-1.115-1.115-1.115c-0.616,0-1.115,0.499-1.115,1.115
				c0,0.616,0.499,1.115,1.115,1.115C49.208,31.298,49.707,30.799,49.707,30.183z M53.053,30.183c0-0.616-0.499-1.115-1.115-1.115
				c-0.616,0-1.115,0.499-1.115,1.115c0,0.616,0.499,1.115,1.115,1.115C52.553,31.298,53.053,30.799,53.053,30.183z M47.756,43.007
				c0-0.616-0.499-1.115-1.115-1.115c-0.616,0-1.115,0.5-1.115,1.115c0,0.616,0.499,1.115,1.115,1.115
				C47.256,44.123,47.756,43.624,47.756,43.007z M51.101,43.007c0-0.616-0.499-1.115-1.115-1.115c-0.616,0-1.115,0.5-1.115,1.115
				c0,0.616,0.499,1.115,1.115,1.115C50.602,44.123,51.101,43.624,51.101,43.007z M54.447,43.007c0-0.616-0.499-1.115-1.115-1.115
				c-0.616,0-1.115,0.5-1.115,1.115c0,0.616,0.499,1.115,1.115,1.115C53.947,44.123,54.447,43.624,54.447,43.007z M57.792,43.007
				c0-0.616-0.499-1.115-1.115-1.115c-0.616,0-1.115,0.5-1.115,1.115c0,0.616,0.499,1.115,1.115,1.115
				C57.293,44.123,57.792,43.624,57.792,43.007z M61.138,43.007c0-0.616-0.499-1.115-1.115-1.115c-0.616,0-1.115,0.5-1.115,1.115
				c0,0.616,0.499,1.115,1.115,1.115C60.638,44.123,61.138,43.624,61.138,43.007z M64.483,43.007c0-0.616-0.499-1.115-1.115-1.115
				c-0.616,0-1.115,0.5-1.115,1.115c0,0.616,0.499,1.115,1.115,1.115C63.984,44.123,64.483,43.624,64.483,43.007z M47.756,52.208
				c0-0.616-0.499-1.115-1.115-1.115c-0.616,0-1.115,0.499-1.115,1.115c0,0.616,0.499,1.115,1.115,1.115
				C47.256,53.323,47.756,52.824,47.756,52.208z M51.101,52.208c0-0.616-0.499-1.115-1.115-1.115c-0.616,0-1.115,0.499-1.115,1.115
				c0,0.616,0.499,1.115,1.115,1.115C50.602,53.323,51.101,52.824,51.101,52.208z M54.447,52.208c0-0.616-0.499-1.115-1.115-1.115
				c-0.616,0-1.115,0.499-1.115,1.115c0,0.616,0.499,1.115,1.115,1.115C53.947,53.323,54.447,52.824,54.447,52.208z M57.792,52.208
				c0-0.616-0.499-1.115-1.115-1.115c-0.616,0-1.115,0.499-1.115,1.115c0,0.616,0.499,1.115,1.115,1.115
				C57.293,53.323,57.792,52.824,57.792,52.208z M61.138,52.208c0-0.616-0.499-1.115-1.115-1.115c-0.616,0-1.115,0.499-1.115,1.115
				c0,0.616,0.499,1.115,1.115,1.115C60.638,53.323,61.138,52.824,61.138,52.208z M64.483,52.208c0-0.616-0.499-1.115-1.115-1.115
				c-0.616,0-1.115,0.499-1.115,1.115c0,0.616,0.499,1.115,1.115,1.115C63.984,53.323,64.483,52.824,64.483,52.208z"/>
			<path style="fill:#92E3A9;" d="M16.251,57.919h-3.903c-0.532,0-0.963-0.431-0.963-0.963c0-0.532,0.431-0.963,0.963-0.963h3.903
				c0.532,0,0.963,0.431,0.963,0.963C17.214,57.489,16.783,57.919,16.251,57.919z M17.214,61.417c0-0.532-0.431-0.963-0.963-0.963
				h-3.903c-0.532,0-0.963,0.431-0.963,0.963c0,0.532,0.431,0.963,0.963,0.963h3.903C16.783,62.38,17.214,61.949,17.214,61.417z
				 M17.214,65.878c0-0.532-0.431-0.962-0.963-0.962h-3.903c-0.532,0-0.963,0.43-0.963,0.962c0,0.532,0.431,0.963,0.963,0.963h3.903
				C16.783,66.84,17.214,66.41,17.214,65.878z M17.214,70.339c0-0.532-0.431-0.963-0.963-0.963h-3.903
				c-0.532,0-0.963,0.43-0.963,0.963c0,0.532,0.431,0.962,0.963,0.962h3.903C16.783,71.301,17.214,70.871,17.214,70.339z
				 M17.214,74.799c0-0.532-0.431-0.963-0.963-0.963h-3.903c-0.532,0-0.963,0.431-0.963,0.963c0,0.532,0.431,0.963,0.963,0.963
				h3.903C16.783,75.762,17.214,75.331,17.214,74.799z M17.214,79.261c0-0.532-0.431-0.963-0.963-0.963h-3.903
				c-0.532,0-0.963,0.43-0.963,0.963c0,0.532,0.431,0.963,0.963,0.963h3.903C16.783,80.223,17.214,79.793,17.214,79.261z
				 M17.214,83.721c0-0.532-0.431-0.963-0.963-0.963h-3.903c-0.532,0-0.963,0.431-0.963,0.963c0,0.532,0.431,0.963,0.963,0.963
				h3.903C16.783,84.684,17.214,84.253,17.214,83.721z M17.214,88.182c0-0.532-0.431-0.963-0.963-0.963h-3.903
				c-0.532,0-0.963,0.431-0.963,0.963c0,0.532,0.431,0.963,0.963,0.963h3.903C16.783,89.144,17.214,88.714,17.214,88.182z
				 M31.816,56.957c0-0.532-0.431-0.963-0.962-0.963H20.607c-0.532,0-0.962,0.431-0.962,0.963c0,0.532,0.431,0.963,0.962,0.963
				h10.246C31.385,57.919,31.816,57.489,31.816,56.957z M31.816,61.417c0-0.532-0.431-0.963-0.962-0.963H20.607
				c-0.532,0-0.962,0.431-0.962,0.963c0,0.532,0.431,0.963,0.962,0.963h10.246C31.385,62.38,31.816,61.949,31.816,61.417z
				 M31.816,65.878c0-0.532-0.431-0.962-0.962-0.962H20.607c-0.532,0-0.962,0.43-0.962,0.962c0,0.532,0.431,0.963,0.962,0.963
				h10.246C31.385,66.84,31.816,66.41,31.816,65.878z M31.816,70.339c0-0.532-0.431-0.963-0.962-0.963H20.607
				c-0.532,0-0.962,0.43-0.962,0.963c0,0.532,0.431,0.962,0.962,0.962h10.246C31.385,71.301,31.816,70.871,31.816,70.339z
				 M31.816,74.799c0-0.532-0.431-0.963-0.962-0.963H20.607c-0.532,0-0.962,0.431-0.962,0.963c0,0.532,0.431,0.963,0.962,0.963
				h10.246C31.385,75.762,31.816,75.331,31.816,74.799z M44.083,79.261c0-0.532-0.43-0.963-0.963-0.963H32.875
				c-0.532,0-0.963,0.43-0.963,0.963c0,0.532,0.431,0.963,0.963,0.963H43.12C43.652,80.223,44.083,79.793,44.083,79.261z
				 M44.083,83.721c0-0.532-0.43-0.963-0.963-0.963H32.875c-0.532,0-0.963,0.431-0.963,0.963c0,0.532,0.431,0.963,0.963,0.963H43.12
				C43.652,84.684,44.083,84.253,44.083,83.721z M44.083,88.182c0-0.532-0.43-0.963-0.963-0.963H32.875
				c-0.532,0-0.963,0.431-0.963,0.963c0,0.532,0.431,0.963,0.963,0.963H43.12C43.652,89.144,44.083,88.714,44.083,88.182z
				 M36.325,56.957c0-0.616-0.499-1.115-1.115-1.115c-0.616,0-1.115,0.499-1.115,1.115c0,0.616,0.499,1.115,1.115,1.115
				C35.825,58.072,36.325,57.572,36.325,56.957z M39.67,56.957c0-0.616-0.499-1.115-1.115-1.115c-0.616,0-1.115,0.499-1.115,1.115
				c0,0.616,0.499,1.115,1.115,1.115C39.171,58.072,39.67,57.572,39.67,56.957z M43.016,56.957c0-0.616-0.499-1.115-1.115-1.115
				c-0.616,0-1.115,0.499-1.115,1.115c0,0.616,0.499,1.115,1.115,1.115C42.517,58.072,43.016,57.572,43.016,56.957z M46.361,56.957
				c0-0.616-0.499-1.115-1.115-1.115c-0.616,0-1.115,0.499-1.115,1.115c0,0.616,0.499,1.115,1.115,1.115
				C45.862,58.072,46.361,57.572,46.361,56.957z M49.707,56.957c0-0.616-0.499-1.115-1.115-1.115c-0.616,0-1.115,0.499-1.115,1.115
				c0,0.616,0.499,1.115,1.115,1.115C49.208,58.072,49.707,57.572,49.707,56.957z M53.053,56.957c0-0.616-0.499-1.115-1.115-1.115
				c-0.616,0-1.115,0.499-1.115,1.115c0,0.616,0.499,1.115,1.115,1.115C52.553,58.072,53.053,57.572,53.053,56.957z M36.325,65.878
				c0-0.616-0.499-1.115-1.115-1.115c-0.616,0-1.115,0.499-1.115,1.115c0,0.616,0.499,1.115,1.115,1.115
				C35.825,66.993,36.325,66.494,36.325,65.878z M39.67,65.878c0-0.616-0.499-1.115-1.115-1.115c-0.616,0-1.115,0.499-1.115,1.115
				c0,0.616,0.499,1.115,1.115,1.115C39.171,66.993,39.67,66.494,39.67,65.878z M43.016,65.878c0-0.616-0.499-1.115-1.115-1.115
				c-0.616,0-1.115,0.499-1.115,1.115c0,0.616,0.499,1.115,1.115,1.115C42.517,66.993,43.016,66.494,43.016,65.878z M46.361,65.878
				c0-0.616-0.499-1.115-1.115-1.115c-0.616,0-1.115,0.499-1.115,1.115c0,0.616,0.499,1.115,1.115,1.115
				C45.862,66.993,46.361,66.494,46.361,65.878z M49.707,65.878c0-0.616-0.499-1.115-1.115-1.115c-0.616,0-1.115,0.499-1.115,1.115
				c0,0.616,0.499,1.115,1.115,1.115C49.208,66.993,49.707,66.494,49.707,65.878z M53.053,65.878c0-0.616-0.499-1.115-1.115-1.115
				c-0.616,0-1.115,0.499-1.115,1.115c0,0.616,0.499,1.115,1.115,1.115C52.553,66.993,53.053,66.494,53.053,65.878z M47.756,78.703
				c0-0.616-0.499-1.115-1.115-1.115c-0.616,0-1.115,0.499-1.115,1.115c0,0.616,0.499,1.115,1.115,1.115
				C47.256,79.818,47.756,79.319,47.756,78.703z M51.101,78.703c0-0.616-0.499-1.115-1.115-1.115c-0.616,0-1.115,0.499-1.115,1.115
				c0,0.616,0.499,1.115,1.115,1.115C50.602,79.818,51.101,79.319,51.101,78.703z M54.447,78.703c0-0.616-0.499-1.115-1.115-1.115
				c-0.616,0-1.115,0.499-1.115,1.115c0,0.616,0.499,1.115,1.115,1.115C53.947,79.818,54.447,79.319,54.447,78.703z M57.792,78.703
				c0-0.616-0.499-1.115-1.115-1.115c-0.616,0-1.115,0.499-1.115,1.115c0,0.616,0.499,1.115,1.115,1.115
				C57.293,79.818,57.792,79.319,57.792,78.703z M61.138,78.703c0-0.616-0.499-1.115-1.115-1.115c-0.616,0-1.115,0.499-1.115,1.115
				c0,0.616,0.499,1.115,1.115,1.115C60.638,79.818,61.138,79.319,61.138,78.703z M64.483,78.703c0-0.616-0.499-1.115-1.115-1.115
				c-0.616,0-1.115,0.499-1.115,1.115c0,0.616,0.499,1.115,1.115,1.115C63.984,79.818,64.483,79.319,64.483,78.703z M47.756,87.903
				c0-0.616-0.499-1.115-1.115-1.115c-0.616,0-1.115,0.499-1.115,1.115s0.499,1.115,1.115,1.115
				C47.256,89.018,47.756,88.519,47.756,87.903z M51.101,87.903c0-0.616-0.499-1.115-1.115-1.115c-0.616,0-1.115,0.499-1.115,1.115
				s0.499,1.115,1.115,1.115C50.602,89.018,51.101,88.519,51.101,87.903z M54.447,87.903c0-0.616-0.499-1.115-1.115-1.115
				c-0.616,0-1.115,0.499-1.115,1.115s0.499,1.115,1.115,1.115C53.947,89.018,54.447,88.519,54.447,87.903z M57.792,87.903
				c0-0.616-0.499-1.115-1.115-1.115c-0.616,0-1.115,0.499-1.115,1.115s0.499,1.115,1.115,1.115
				C57.293,89.018,57.792,88.519,57.792,87.903z M61.138,87.903c0-0.616-0.499-1.115-1.115-1.115c-0.616,0-1.115,0.499-1.115,1.115
				s0.499,1.115,1.115,1.115C60.638,89.018,61.138,88.519,61.138,87.903z M64.483,87.903c0-0.616-0.499-1.115-1.115-1.115
				c-0.616,0-1.115,0.499-1.115,1.115s0.499,1.115,1.115,1.115C63.984,89.018,64.483,88.519,64.483,87.903z"/>
			<path style="fill:#92E3A9;" d="M16.251,94.476h-3.903c-0.532,0-0.963-0.431-0.963-0.963c0-0.532,0.431-0.963,0.963-0.963h3.903
				c0.532,0,0.963,0.431,0.963,0.963C17.214,94.046,16.783,94.476,16.251,94.476z M17.214,97.974c0-0.532-0.431-0.962-0.963-0.962
				h-3.903c-0.532,0-0.963,0.43-0.963,0.962c0,0.532,0.431,0.963,0.963,0.963h3.903C16.783,98.937,17.214,98.507,17.214,97.974z
				 M17.214,102.435c0-0.532-0.431-0.963-0.963-0.963h-3.903c-0.532,0-0.963,0.431-0.963,0.963c0,0.532,0.431,0.963,0.963,0.963
				h3.903C16.783,103.398,17.214,102.967,17.214,102.435z M17.214,106.896c0-0.532-0.431-0.963-0.963-0.963h-3.903
				c-0.532,0-0.963,0.431-0.963,0.963c0,0.532,0.431,0.963,0.963,0.963h3.903C16.783,107.858,17.214,107.428,17.214,106.896z
				 M17.214,111.356c0-0.532-0.431-0.963-0.963-0.963h-3.903c-0.532,0-0.963,0.431-0.963,0.963c0,0.532,0.431,0.963,0.963,0.963
				h3.903C16.783,112.319,17.214,111.888,17.214,111.356z M17.214,115.818c0-0.532-0.431-0.963-0.963-0.963h-3.903
				c-0.532,0-0.963,0.431-0.963,0.963c0,0.532,0.431,0.963,0.963,0.963h3.903C16.783,116.78,17.214,116.35,17.214,115.818z
				 M17.214,120.278c0-0.532-0.431-0.963-0.963-0.963h-3.903c-0.532,0-0.963,0.431-0.963,0.963c0,0.532,0.431,0.963,0.963,0.963
				h3.903C16.783,121.241,17.214,120.81,17.214,120.278z M17.214,124.739c0-0.532-0.431-0.963-0.963-0.963h-3.903
				c-0.532,0-0.963,0.431-0.963,0.963c0,0.532,0.431,0.963,0.963,0.963h3.903C16.783,125.701,17.214,125.271,17.214,124.739z
				 M31.816,93.514c0-0.532-0.431-0.963-0.962-0.963H20.607c-0.532,0-0.962,0.431-0.962,0.963c0,0.532,0.431,0.963,0.962,0.963
				h10.246C31.385,94.476,31.816,94.046,31.816,93.514z M31.816,97.974c0-0.532-0.431-0.962-0.962-0.962H20.607
				c-0.532,0-0.962,0.43-0.962,0.962c0,0.532,0.431,0.963,0.962,0.963h10.246C31.385,98.937,31.816,98.507,31.816,97.974z
				 M31.816,102.435c0-0.532-0.431-0.963-0.962-0.963H20.607c-0.532,0-0.962,0.431-0.962,0.963c0,0.532,0.431,0.963,0.962,0.963
				h10.246C31.385,103.398,31.816,102.967,31.816,102.435z M31.816,106.896c0-0.532-0.431-0.963-0.962-0.963H20.607
				c-0.532,0-0.962,0.431-0.962,0.963c0,0.532,0.431,0.963,0.962,0.963h10.246C31.385,107.858,31.816,107.428,31.816,106.896z
				 M31.816,111.356c0-0.532-0.431-0.963-0.962-0.963H20.607c-0.532,0-0.962,0.431-0.962,0.963c0,0.532,0.431,0.963,0.962,0.963
				h10.246C31.385,112.319,31.816,111.888,31.816,111.356z M44.083,115.818c0-0.532-0.43-0.963-0.963-0.963H32.875
				c-0.532,0-0.963,0.431-0.963,0.963c0,0.532,0.431,0.963,0.963,0.963H43.12C43.652,116.78,44.083,116.35,44.083,115.818z
				 M44.083,120.278c0-0.532-0.43-0.963-0.963-0.963H32.875c-0.532,0-0.963,0.431-0.963,0.963c0,0.532,0.431,0.963,0.963,0.963
				H43.12C43.652,121.241,44.083,120.81,44.083,120.278z M44.083,124.739c0-0.532-0.43-0.963-0.963-0.963H32.875
				c-0.532,0-0.963,0.431-0.963,0.963c0,0.532,0.431,0.963,0.963,0.963H43.12C43.652,125.701,44.083,125.271,44.083,124.739z
				 M36.325,93.513c0-0.616-0.499-1.115-1.115-1.115c-0.616,0-1.115,0.499-1.115,1.115c0,0.616,0.499,1.115,1.115,1.115
				C35.825,94.629,36.325,94.13,36.325,93.513z M39.67,93.513c0-0.616-0.499-1.115-1.115-1.115c-0.616,0-1.115,0.499-1.115,1.115
				c0,0.616,0.499,1.115,1.115,1.115C39.171,94.629,39.67,94.13,39.67,93.513z M43.016,93.513c0-0.616-0.499-1.115-1.115-1.115
				c-0.616,0-1.115,0.499-1.115,1.115c0,0.616,0.499,1.115,1.115,1.115C42.517,94.629,43.016,94.13,43.016,93.513z M46.361,93.513
				c0-0.616-0.499-1.115-1.115-1.115c-0.616,0-1.115,0.499-1.115,1.115c0,0.616,0.499,1.115,1.115,1.115
				C45.862,94.629,46.361,94.13,46.361,93.513z M49.707,93.513c0-0.616-0.499-1.115-1.115-1.115c-0.616,0-1.115,0.499-1.115,1.115
				c0,0.616,0.499,1.115,1.115,1.115C49.208,94.629,49.707,94.13,49.707,93.513z M53.053,93.513c0-0.616-0.499-1.115-1.115-1.115
				c-0.616,0-1.115,0.499-1.115,1.115c0,0.616,0.499,1.115,1.115,1.115C52.553,94.629,53.053,94.13,53.053,93.513z M36.325,102.435
				c0-0.616-0.499-1.115-1.115-1.115c-0.616,0-1.115,0.499-1.115,1.115c0,0.616,0.499,1.115,1.115,1.115
				C35.825,103.55,36.325,103.051,36.325,102.435z M39.67,102.435c0-0.616-0.499-1.115-1.115-1.115
				c-0.616,0-1.115,0.499-1.115,1.115c0,0.616,0.499,1.115,1.115,1.115C39.171,103.55,39.67,103.051,39.67,102.435z M43.016,102.435
				c0-0.616-0.499-1.115-1.115-1.115c-0.616,0-1.115,0.499-1.115,1.115c0,0.616,0.499,1.115,1.115,1.115
				C42.517,103.55,43.016,103.051,43.016,102.435z M46.361,102.435c0-0.616-0.499-1.115-1.115-1.115
				c-0.616,0-1.115,0.499-1.115,1.115c0,0.616,0.499,1.115,1.115,1.115C45.862,103.55,46.361,103.051,46.361,102.435z
				 M49.707,102.435c0-0.616-0.499-1.115-1.115-1.115c-0.616,0-1.115,0.499-1.115,1.115c0,0.616,0.499,1.115,1.115,1.115
				C49.208,103.55,49.707,103.051,49.707,102.435z M53.053,102.435c0-0.616-0.499-1.115-1.115-1.115
				c-0.616,0-1.115,0.499-1.115,1.115c0,0.616,0.499,1.115,1.115,1.115C52.553,103.55,53.053,103.051,53.053,102.435z
				 M47.756,115.26c0-0.616-0.499-1.115-1.115-1.115c-0.616,0-1.115,0.499-1.115,1.115c0,0.616,0.499,1.115,1.115,1.115
				C47.256,116.375,47.756,115.876,47.756,115.26z M51.101,115.26c0-0.616-0.499-1.115-1.115-1.115
				c-0.616,0-1.115,0.499-1.115,1.115c0,0.616,0.499,1.115,1.115,1.115C50.602,116.375,51.101,115.876,51.101,115.26z
				 M54.447,115.26c0-0.616-0.499-1.115-1.115-1.115c-0.616,0-1.115,0.499-1.115,1.115c0,0.616,0.499,1.115,1.115,1.115
				C53.947,116.375,54.447,115.876,54.447,115.26z M57.792,115.26c0-0.616-0.499-1.115-1.115-1.115
				c-0.616,0-1.115,0.499-1.115,1.115c0,0.616,0.499,1.115,1.115,1.115C57.293,116.375,57.792,115.876,57.792,115.26z
				 M61.138,115.26c0-0.616-0.499-1.115-1.115-1.115c-0.616,0-1.115,0.499-1.115,1.115c0,0.616,0.499,1.115,1.115,1.115
				C60.638,116.375,61.138,115.876,61.138,115.26z M64.483,115.26c0-0.616-0.499-1.115-1.115-1.115
				c-0.616,0-1.115,0.499-1.115,1.115c0,0.616,0.499,1.115,1.115,1.115C63.984,116.375,64.483,115.876,64.483,115.26z
				 M47.756,124.46c0-0.616-0.499-1.115-1.115-1.115c-0.616,0-1.115,0.499-1.115,1.115c0,0.616,0.499,1.115,1.115,1.115
				C47.256,125.575,47.756,125.076,47.756,124.46z M51.101,124.46c0-0.616-0.499-1.115-1.115-1.115
				c-0.616,0-1.115,0.499-1.115,1.115c0,0.616,0.499,1.115,1.115,1.115C50.602,125.575,51.101,125.076,51.101,124.46z
				 M54.447,124.46c0-0.616-0.499-1.115-1.115-1.115c-0.616,0-1.115,0.499-1.115,1.115c0,0.616,0.499,1.115,1.115,1.115
				C53.947,125.575,54.447,125.076,54.447,124.46z M57.792,124.46c0-0.616-0.499-1.115-1.115-1.115
				c-0.616,0-1.115,0.499-1.115,1.115c0,0.616,0.499,1.115,1.115,1.115C57.293,125.575,57.792,125.076,57.792,124.46z
				 M61.138,124.46c0-0.616-0.499-1.115-1.115-1.115c-0.616,0-1.115,0.499-1.115,1.115c0,0.616,0.499,1.115,1.115,1.115
				C60.638,125.575,61.138,125.076,61.138,124.46z M64.483,124.46c0-0.616-0.499-1.115-1.115-1.115
				c-0.616,0-1.115,0.499-1.115,1.115c0,0.616,0.499,1.115,1.115,1.115C63.984,125.575,64.483,125.076,64.483,124.46z"/>
			<path style="fill:#92E3A9;" d="M76.176,22.224h-3.903c-0.532,0-0.963-0.431-0.963-0.963c0-0.532,0.43-0.962,0.963-0.962h3.903
				c0.532,0,0.963,0.431,0.963,0.962C77.139,21.794,76.709,22.224,76.176,22.224z M77.139,25.722c0-0.532-0.43-0.962-0.963-0.962
				h-3.903c-0.532,0-0.963,0.43-0.963,0.962c0,0.532,0.43,0.963,0.963,0.963h3.903C76.709,26.685,77.139,26.254,77.139,25.722z
				 M77.139,30.183c0-0.532-0.43-0.963-0.963-0.963h-3.903c-0.532,0-0.963,0.431-0.963,0.963c0,0.532,0.43,0.963,0.963,0.963h3.903
				C76.709,31.145,77.139,30.715,77.139,30.183z M77.139,34.643c0-0.532-0.43-0.963-0.963-0.963h-3.903
				c-0.532,0-0.963,0.431-0.963,0.963c0,0.532,0.43,0.963,0.963,0.963h3.903C76.709,35.606,77.139,35.175,77.139,34.643z
				 M77.139,39.104c0-0.532-0.43-0.963-0.963-0.963h-3.903c-0.532,0-0.963,0.431-0.963,0.963c0,0.532,0.43,0.963,0.963,0.963h3.903
				C76.709,40.067,77.139,39.636,77.139,39.104z M77.139,43.565c0-0.532-0.43-0.963-0.963-0.963h-3.903
				c-0.532,0-0.963,0.431-0.963,0.963s0.43,0.963,0.963,0.963h3.903C76.709,44.528,77.139,44.097,77.139,43.565z M77.139,48.026
				c0-0.532-0.43-0.963-0.963-0.963h-3.903c-0.532,0-0.963,0.43-0.963,0.963s0.43,0.963,0.963,0.963h3.903
				C76.709,48.989,77.139,48.558,77.139,48.026z M77.139,52.487c0-0.532-0.43-0.962-0.963-0.962h-3.903
				c-0.532,0-0.963,0.43-0.963,0.962s0.43,0.963,0.963,0.963h3.903C76.709,53.449,77.139,53.019,77.139,52.487z M91.741,21.261
				c0-0.532-0.431-0.962-0.963-0.962H80.533c-0.532,0-0.963,0.431-0.963,0.962c0,0.532,0.431,0.963,0.963,0.963h10.246
				C91.311,22.224,91.741,21.794,91.741,21.261z M91.741,25.722c0-0.532-0.431-0.962-0.963-0.962H80.533
				c-0.532,0-0.963,0.43-0.963,0.962c0,0.532,0.431,0.963,0.963,0.963h10.246C91.311,26.685,91.741,26.254,91.741,25.722z
				 M91.741,30.183c0-0.532-0.431-0.963-0.963-0.963H80.533c-0.532,0-0.963,0.431-0.963,0.963c0,0.532,0.431,0.963,0.963,0.963
				h10.246C91.311,31.145,91.741,30.715,91.741,30.183z M91.741,34.643c0-0.532-0.431-0.963-0.963-0.963H80.533
				c-0.532,0-0.963,0.431-0.963,0.963c0,0.532,0.431,0.963,0.963,0.963h10.246C91.311,35.606,91.741,35.175,91.741,34.643z
				 M91.741,39.104c0-0.532-0.431-0.963-0.963-0.963H80.533c-0.532,0-0.963,0.431-0.963,0.963c0,0.532,0.431,0.963,0.963,0.963
				h10.246C91.311,40.067,91.741,39.636,91.741,39.104z M104.008,43.565c0-0.532-0.43-0.963-0.963-0.963H92.8
				c-0.532,0-0.963,0.431-0.963,0.963s0.431,0.963,0.963,0.963h10.246C103.577,44.528,104.008,44.097,104.008,43.565z
				 M104.008,48.026c0-0.532-0.43-0.963-0.963-0.963H92.8c-0.532,0-0.963,0.43-0.963,0.963s0.431,0.963,0.963,0.963h10.246
				C103.577,48.989,104.008,48.558,104.008,48.026z M104.008,52.487c0-0.532-0.43-0.962-0.963-0.962H92.8
				c-0.532,0-0.963,0.43-0.963,0.962s0.431,0.963,0.963,0.963h10.246C103.577,53.449,104.008,53.019,104.008,52.487z M96.25,21.261
				c0-0.616-0.499-1.115-1.115-1.115c-0.616,0-1.115,0.499-1.115,1.115s0.499,1.115,1.115,1.115
				C95.751,22.377,96.25,21.877,96.25,21.261z M99.595,21.261c0-0.616-0.499-1.115-1.115-1.115c-0.616,0-1.115,0.499-1.115,1.115
				s0.5,1.115,1.115,1.115C99.096,22.377,99.595,21.877,99.595,21.261z M102.941,21.261c0-0.616-0.499-1.115-1.115-1.115
				c-0.616,0-1.115,0.499-1.115,1.115s0.499,1.115,1.115,1.115C102.442,22.377,102.941,21.877,102.941,21.261z M106.286,21.261
				c0-0.616-0.499-1.115-1.115-1.115c-0.616,0-1.115,0.499-1.115,1.115s0.499,1.115,1.115,1.115
				C105.787,22.377,106.286,21.877,106.286,21.261z M109.632,21.261c0-0.616-0.499-1.115-1.115-1.115
				c-0.616,0-1.115,0.499-1.115,1.115s0.499,1.115,1.115,1.115C109.133,22.377,109.632,21.877,109.632,21.261z M112.978,21.261
				c0-0.616-0.499-1.115-1.116-1.115c-0.616,0-1.115,0.499-1.115,1.115s0.499,1.115,1.115,1.115
				C112.479,22.377,112.978,21.877,112.978,21.261z M96.25,30.183c0-0.616-0.499-1.115-1.115-1.115
				c-0.616,0-1.115,0.499-1.115,1.115c0,0.616,0.499,1.115,1.115,1.115C95.751,31.298,96.25,30.799,96.25,30.183z M99.595,30.183
				c0-0.616-0.499-1.115-1.115-1.115c-0.616,0-1.115,0.499-1.115,1.115c0,0.616,0.5,1.115,1.115,1.115
				C99.096,31.298,99.595,30.799,99.595,30.183z M102.941,30.183c0-0.616-0.499-1.115-1.115-1.115c-0.616,0-1.115,0.499-1.115,1.115
				c0,0.616,0.499,1.115,1.115,1.115C102.442,31.298,102.941,30.799,102.941,30.183z M106.286,30.183
				c0-0.616-0.499-1.115-1.115-1.115c-0.616,0-1.115,0.499-1.115,1.115c0,0.616,0.499,1.115,1.115,1.115
				C105.787,31.298,106.286,30.799,106.286,30.183z M109.632,30.183c0-0.616-0.499-1.115-1.115-1.115
				c-0.616,0-1.115,0.499-1.115,1.115c0,0.616,0.499,1.115,1.115,1.115C109.133,31.298,109.632,30.799,109.632,30.183z
				 M112.978,30.183c0-0.616-0.499-1.115-1.116-1.115c-0.616,0-1.115,0.499-1.115,1.115c0,0.616,0.499,1.115,1.115,1.115
				C112.479,31.298,112.978,30.799,112.978,30.183z M107.681,43.007c0-0.616-0.499-1.115-1.115-1.115
				c-0.616,0-1.115,0.5-1.115,1.115c0,0.616,0.499,1.115,1.115,1.115C107.181,44.123,107.681,43.624,107.681,43.007z
				 M111.026,43.007c0-0.616-0.499-1.115-1.115-1.115c-0.616,0-1.115,0.5-1.115,1.115c0,0.616,0.499,1.115,1.115,1.115
				C110.527,44.123,111.026,43.624,111.026,43.007z M114.372,43.007c0-0.616-0.499-1.115-1.115-1.115
				c-0.616,0-1.115,0.5-1.115,1.115c0,0.616,0.499,1.115,1.115,1.115C113.872,44.123,114.372,43.624,114.372,43.007z
				 M117.717,43.007c0-0.616-0.499-1.115-1.115-1.115c-0.616,0-1.115,0.5-1.115,1.115c0,0.616,0.499,1.115,1.115,1.115
				C117.218,44.123,117.717,43.624,117.717,43.007z M121.063,43.007c0-0.616-0.499-1.115-1.115-1.115
				c-0.616,0-1.115,0.5-1.115,1.115c0,0.616,0.499,1.115,1.115,1.115C120.563,44.123,121.063,43.624,121.063,43.007z
				 M124.408,43.007c0-0.616-0.499-1.115-1.115-1.115s-1.115,0.5-1.115,1.115c0,0.616,0.499,1.115,1.115,1.115
				S124.408,43.624,124.408,43.007z M107.681,52.208c0-0.616-0.499-1.115-1.115-1.115c-0.616,0-1.115,0.499-1.115,1.115
				c0,0.616,0.499,1.115,1.115,1.115C107.181,53.323,107.681,52.824,107.681,52.208z M111.026,52.208
				c0-0.616-0.499-1.115-1.115-1.115c-0.616,0-1.115,0.499-1.115,1.115c0,0.616,0.499,1.115,1.115,1.115
				C110.527,53.323,111.026,52.824,111.026,52.208z M114.372,52.208c0-0.616-0.499-1.115-1.115-1.115
				c-0.616,0-1.115,0.499-1.115,1.115c0,0.616,0.499,1.115,1.115,1.115C113.872,53.323,114.372,52.824,114.372,52.208z
				 M117.717,52.208c0-0.616-0.499-1.115-1.115-1.115c-0.616,0-1.115,0.499-1.115,1.115c0,0.616,0.499,1.115,1.115,1.115
				C117.218,53.323,117.717,52.824,117.717,52.208z M121.063,52.208c0-0.616-0.499-1.115-1.115-1.115
				c-0.616,0-1.115,0.499-1.115,1.115c0,0.616,0.499,1.115,1.115,1.115C120.563,53.323,121.063,52.824,121.063,52.208z
				 M124.408,52.208c0-0.616-0.499-1.115-1.115-1.115s-1.115,0.499-1.115,1.115c0,0.616,0.499,1.115,1.115,1.115
				S124.408,52.824,124.408,52.208z"/>
			<path style="fill:#92E3A9;" d="M76.176,58.781h-3.903c-0.532,0-0.963-0.431-0.963-0.963c0-0.532,0.43-0.963,0.963-0.963h3.903
				c0.532,0,0.963,0.43,0.963,0.963C77.139,58.35,76.709,58.781,76.176,58.781z M77.139,62.279c0-0.532-0.43-0.962-0.963-0.962
				h-3.903c-0.532,0-0.963,0.431-0.963,0.962c0,0.532,0.43,0.963,0.963,0.963h3.903C76.709,63.242,77.139,62.811,77.139,62.279z
				 M77.139,66.74c0-0.532-0.43-0.963-0.963-0.963h-3.903c-0.532,0-0.963,0.431-0.963,0.963c0,0.532,0.43,0.963,0.963,0.963h3.903
				C76.709,67.702,77.139,67.272,77.139,66.74z M77.139,71.2c0-0.532-0.43-0.963-0.963-0.963h-3.903
				c-0.532,0-0.963,0.43-0.963,0.963c0,0.532,0.43,0.962,0.963,0.962h3.903C76.709,72.163,77.139,71.732,77.139,71.2z
				 M77.139,75.661c0-0.532-0.43-0.963-0.963-0.963h-3.903c-0.532,0-0.963,0.431-0.963,0.963c0,0.532,0.43,0.963,0.963,0.963h3.903
				C76.709,76.624,77.139,76.193,77.139,75.661z M77.139,80.122c0-0.532-0.43-0.962-0.963-0.962h-3.903
				c-0.532,0-0.963,0.43-0.963,0.962c0,0.532,0.43,0.963,0.963,0.963h3.903C76.709,81.085,77.139,80.655,77.139,80.122z
				 M77.139,84.583c0-0.532-0.43-0.963-0.963-0.963h-3.903c-0.532,0-0.963,0.431-0.963,0.963c0,0.532,0.43,0.962,0.963,0.962h3.903
				C76.709,85.546,77.139,85.115,77.139,84.583z M77.139,89.044c0-0.532-0.43-0.963-0.963-0.963h-3.903
				c-0.532,0-0.963,0.431-0.963,0.963c0,0.532,0.43,0.963,0.963,0.963h3.903C76.709,90.006,77.139,89.576,77.139,89.044z
				 M91.741,57.818c0-0.532-0.431-0.963-0.963-0.963H80.533c-0.532,0-0.963,0.43-0.963,0.963c0,0.532,0.431,0.963,0.963,0.963
				h10.246C91.311,58.781,91.741,58.35,91.741,57.818z M91.741,62.279c0-0.532-0.431-0.962-0.963-0.962H80.533
				c-0.532,0-0.963,0.431-0.963,0.962c0,0.532,0.431,0.963,0.963,0.963h10.246C91.311,63.242,91.741,62.811,91.741,62.279z
				 M91.741,66.74c0-0.532-0.431-0.963-0.963-0.963H80.533c-0.532,0-0.963,0.431-0.963,0.963c0,0.532,0.431,0.963,0.963,0.963
				h10.246C91.311,67.702,91.741,67.272,91.741,66.74z M91.741,71.2c0-0.532-0.431-0.963-0.963-0.963H80.533
				c-0.532,0-0.963,0.43-0.963,0.963c0,0.532,0.431,0.962,0.963,0.962h10.246C91.311,72.163,91.741,71.732,91.741,71.2z
				 M91.741,75.661c0-0.532-0.431-0.963-0.963-0.963H80.533c-0.532,0-0.963,0.431-0.963,0.963c0,0.532,0.431,0.963,0.963,0.963
				h10.246C91.311,76.624,91.741,76.193,91.741,75.661z M104.008,80.122c0-0.532-0.43-0.962-0.963-0.962H92.8
				c-0.532,0-0.963,0.43-0.963,0.962c0,0.532,0.431,0.963,0.963,0.963h10.246C103.577,81.085,104.008,80.655,104.008,80.122z
				 M104.008,84.583c0-0.532-0.43-0.963-0.963-0.963H92.8c-0.532,0-0.963,0.431-0.963,0.963c0,0.532,0.431,0.962,0.963,0.962h10.246
				C103.577,85.546,104.008,85.115,104.008,84.583z M104.008,89.044c0-0.532-0.43-0.963-0.963-0.963H92.8
				c-0.532,0-0.963,0.431-0.963,0.963c0,0.532,0.431,0.963,0.963,0.963h10.246C103.577,90.006,104.008,89.576,104.008,89.044z
				 M96.25,57.818c0-0.616-0.499-1.115-1.115-1.115c-0.616,0-1.115,0.5-1.115,1.115c0,0.616,0.499,1.115,1.115,1.115
				C95.751,58.934,96.25,58.434,96.25,57.818z M99.595,57.818c0-0.616-0.499-1.115-1.115-1.115c-0.616,0-1.115,0.5-1.115,1.115
				c0,0.616,0.5,1.115,1.115,1.115C99.096,58.934,99.595,58.434,99.595,57.818z M102.941,57.818c0-0.616-0.499-1.115-1.115-1.115
				c-0.616,0-1.115,0.5-1.115,1.115c0,0.616,0.499,1.115,1.115,1.115C102.442,58.934,102.941,58.434,102.941,57.818z
				 M106.286,57.818c0-0.616-0.499-1.115-1.115-1.115c-0.616,0-1.115,0.5-1.115,1.115c0,0.616,0.499,1.115,1.115,1.115
				C105.787,58.934,106.286,58.434,106.286,57.818z M109.632,57.818c0-0.616-0.499-1.115-1.115-1.115
				c-0.616,0-1.115,0.5-1.115,1.115c0,0.616,0.499,1.115,1.115,1.115C109.133,58.934,109.632,58.434,109.632,57.818z
				 M112.978,57.818c0-0.616-0.499-1.115-1.116-1.115c-0.616,0-1.115,0.5-1.115,1.115c0,0.616,0.499,1.115,1.115,1.115
				C112.479,58.934,112.978,58.434,112.978,57.818z M96.25,66.74c0-0.616-0.499-1.115-1.115-1.115c-0.616,0-1.115,0.499-1.115,1.115
				c0,0.616,0.499,1.115,1.115,1.115C95.751,67.855,96.25,67.356,96.25,66.74z M99.595,66.74c0-0.616-0.499-1.115-1.115-1.115
				c-0.616,0-1.115,0.499-1.115,1.115c0,0.616,0.5,1.115,1.115,1.115C99.096,67.855,99.595,67.356,99.595,66.74z M102.941,66.74
				c0-0.616-0.499-1.115-1.115-1.115c-0.616,0-1.115,0.499-1.115,1.115c0,0.616,0.499,1.115,1.115,1.115
				C102.442,67.855,102.941,67.356,102.941,66.74z M106.286,66.74c0-0.616-0.499-1.115-1.115-1.115
				c-0.616,0-1.115,0.499-1.115,1.115c0,0.616,0.499,1.115,1.115,1.115C105.787,67.855,106.286,67.356,106.286,66.74z
				 M109.632,66.74c0-0.616-0.499-1.115-1.115-1.115c-0.616,0-1.115,0.499-1.115,1.115c0,0.616,0.499,1.115,1.115,1.115
				C109.133,67.855,109.632,67.356,109.632,66.74z M112.978,66.74c0-0.616-0.499-1.115-1.116-1.115
				c-0.616,0-1.115,0.499-1.115,1.115c0,0.616,0.499,1.115,1.115,1.115C112.479,67.855,112.978,67.356,112.978,66.74z
				 M107.681,79.564c0-0.616-0.499-1.115-1.115-1.115c-0.616,0-1.115,0.499-1.115,1.115c0,0.616,0.499,1.115,1.115,1.115
				C107.181,80.68,107.681,80.18,107.681,79.564z M111.026,79.564c0-0.616-0.499-1.115-1.115-1.115
				c-0.616,0-1.115,0.499-1.115,1.115c0,0.616,0.499,1.115,1.115,1.115C110.527,80.68,111.026,80.18,111.026,79.564z
				 M114.372,79.564c0-0.616-0.499-1.115-1.115-1.115c-0.616,0-1.115,0.499-1.115,1.115c0,0.616,0.499,1.115,1.115,1.115
				C113.872,80.68,114.372,80.18,114.372,79.564z M117.717,79.564c0-0.616-0.499-1.115-1.115-1.115
				c-0.616,0-1.115,0.499-1.115,1.115c0,0.616,0.499,1.115,1.115,1.115C117.218,80.68,117.717,80.18,117.717,79.564z
				 M121.063,79.564c0-0.616-0.499-1.115-1.115-1.115c-0.616,0-1.115,0.499-1.115,1.115c0,0.616,0.499,1.115,1.115,1.115
				C120.563,80.68,121.063,80.18,121.063,79.564z M124.408,79.564c0-0.616-0.499-1.115-1.115-1.115s-1.115,0.499-1.115,1.115
				c0,0.616,0.499,1.115,1.115,1.115S124.408,80.18,124.408,79.564z M107.681,88.765c0-0.616-0.499-1.115-1.115-1.115
				c-0.616,0-1.115,0.499-1.115,1.115c0,0.616,0.499,1.115,1.115,1.115C107.181,89.88,107.681,89.381,107.681,88.765z
				 M111.026,88.765c0-0.616-0.499-1.115-1.115-1.115c-0.616,0-1.115,0.499-1.115,1.115c0,0.616,0.499,1.115,1.115,1.115
				C110.527,89.88,111.026,89.381,111.026,88.765z M114.372,88.765c0-0.616-0.499-1.115-1.115-1.115
				c-0.616,0-1.115,0.499-1.115,1.115c0,0.616,0.499,1.115,1.115,1.115C113.872,89.88,114.372,89.381,114.372,88.765z
				 M117.717,88.765c0-0.616-0.499-1.115-1.115-1.115c-0.616,0-1.115,0.499-1.115,1.115c0,0.616,0.499,1.115,1.115,1.115
				C117.218,89.88,117.717,89.381,117.717,88.765z M121.063,88.765c0-0.616-0.499-1.115-1.115-1.115
				c-0.616,0-1.115,0.499-1.115,1.115c0,0.616,0.499,1.115,1.115,1.115C120.563,89.88,121.063,89.381,121.063,88.765z
				 M124.408,88.765c0-0.616-0.499-1.115-1.115-1.115s-1.115,0.499-1.115,1.115c0,0.616,0.499,1.115,1.115,1.115
				S124.408,89.381,124.408,88.765z"/>
		</g>
	</g>
</g>
<g id="Profile">
	<g>
		
			<rect x="373.677" y="428.704" style="fill:#92E3A9;stroke:#263238;stroke-linecap:round;stroke-linejoin:round;stroke-miterlimit:10;" width="111.178" height="38.979"/>
		<g>
			
				<ellipse transform="matrix(0.9735 -0.2285 0.2285 0.9735 -91.8485 101.492)" style="fill:#263238;stroke:#263238;stroke-linecap:round;stroke-linejoin:round;stroke-miterlimit:10;" cx="392.386" cy="447.409" rx="12.899" ry="12.899"/>
			<path style="fill:#FFFFFF;stroke:#263238;stroke-linecap:round;stroke-linejoin:round;stroke-miterlimit:10;" d="
				M397.357,443.049c0-2.745-2.225-4.971-4.971-4.971c-2.745,0-4.971,2.226-4.971,4.971c0,2.745,2.225,4.971,4.971,4.971
				C395.132,448.02,397.357,445.794,397.357,443.049z"/>
			<path style="fill:#FFFFFF;stroke:#263238;stroke-linecap:round;stroke-linejoin:round;stroke-miterlimit:10;" d="
				M392.386,448.966c-4.536,0-8.212,3.677-8.212,8.212c0,0.063,0.008,0.124,0.009,0.186c2.229,1.839,5.087,2.944,8.203,2.944
				c3.116,0,5.974-1.105,8.203-2.944c0.001-0.063,0.009-0.123,0.009-0.186C400.599,452.643,396.922,448.966,392.386,448.966z"/>
		</g>
		
			<line style="fill:none;stroke:#263238;stroke-linecap:round;stroke-linejoin:round;stroke-miterlimit:10;" x1="416.547" y1="440.683" x2="448.301" y2="440.683"/>
		
			<line style="fill:none;stroke:#263238;stroke-linecap:round;stroke-linejoin:round;stroke-miterlimit:10;" x1="416.547" y1="448.276" x2="476.603" y2="448.276"/>
		
			<line style="fill:none;stroke:#263238;stroke-linecap:round;stroke-linejoin:round;stroke-miterlimit:10;" x1="416.547" y1="457.435" x2="476.603" y2="457.435"/>
	</g>
</g>
<g id="Envelope">
	<g>
		<g>
			
				<rect x="403.026" y="389.6" style="fill:#FFFFFF;stroke:#263238;stroke-linecap:round;stroke-linejoin:round;stroke-miterlimit:10;" width="44.588" height="26.961"/>
			<polyline style="fill:none;stroke:#263238;stroke-linecap:round;stroke-linejoin:round;stroke-miterlimit:10;" points="
				403.026,389.6 425.321,404.652 447.615,389.6 			"/>
		</g>
	</g>
</g>
<g id="Video">
	<g>
		<path style="fill:#92E3A9;stroke:#263238;stroke-linecap:round;stroke-linejoin:round;stroke-miterlimit:10;" d="M477.43,374.628
			h-35.007c-2.948,0-5.338-2.39-5.338-5.338v-33.002c0-2.948,2.39-5.338,5.338-5.338h35.007c2.948,0,5.338,2.39,5.338,5.338v33.002
			C482.768,372.238,480.378,374.628,477.43,374.628z"/>
		<polygon style="fill:#FFFFFF;stroke:#263238;stroke-linecap:round;stroke-linejoin:round;stroke-miterlimit:10;" points="
			470.637,352.023 452.654,341.64 452.654,362.406 		"/>
	</g>
</g>
<g id="Image">
	<g>
		<g>
			<path style="fill:#263238;stroke:#263238;stroke-linecap:round;stroke-linejoin:round;stroke-miterlimit:10;" d="
				M411.851,374.628h-35.007c-2.948,0-5.338-2.39-5.338-5.338v-33.002c0-2.948,2.39-5.338,5.338-5.338h35.007
				c2.948,0,5.338,2.39,5.338,5.338v33.002C417.189,372.238,414.799,374.628,411.851,374.628z"/>
		</g>
		<g>
			<g>
				<polygon style="fill:#FFFFFF;stroke:#263238;stroke-linecap:round;stroke-linejoin:round;stroke-miterlimit:10;" points="
					378.395,367.097 411.153,367.097 399.126,343.974 391.241,360.032 386.103,352.324 				"/>
				<path style="fill:#FFFFFF;stroke:#263238;stroke-linecap:round;stroke-linejoin:round;stroke-miterlimit:10;" d="
					M392.691,341.765c0-3.385-2.744-6.129-6.129-6.129c-3.385,0-6.129,2.744-6.129,6.129c0,3.385,2.744,6.129,6.129,6.129
					C389.947,347.893,392.691,345.149,392.691,341.765z"/>
			</g>
		</g>
	</g>
</g>
<g id="Cart">
	<g>
		<path style="fill:#92E3A9;stroke:#263238;stroke-linecap:round;stroke-linejoin:round;stroke-miterlimit:10;" d="M450.625,269.838
			c-0.486-0.615-1.226-0.973-2.01-0.973h-42.501c-0.047,0-0.094,0.001-0.141,0.004l-0.011-0.036
			c-1.544-5.127-6.179-8.572-11.533-8.572h-6.42c-1.415,0-2.563,1.147-2.563,2.562c0,1.415,1.148,2.563,2.563,2.563h6.42
			c3.077,0,5.739,1.979,6.626,4.925l7.695,25.549c0.326,1.082,1.323,1.823,2.454,1.823h31.799c1.188,0,2.22-0.816,2.494-1.972
			l5.612-23.693C451.289,271.256,451.111,270.452,450.625,269.838z M409.745,281.388h33.878l-0.775,3.272h-32.117L409.745,281.388z
			 M445.375,273.99l-0.712,3.006h-36.241l-0.905-3.006H445.375z M413.109,292.558l-1.055-3.504h29.753l-0.83,3.504H413.109z"/>
		<path style="fill:#92E3A9;stroke:#263238;stroke-linecap:round;stroke-linejoin:round;stroke-miterlimit:10;" d="M417.54,300.874
			c-2.71,0-4.915,2.205-4.915,4.915c0,2.71,2.205,4.916,4.915,4.916c2.711,0,4.915-2.206,4.915-4.916
			C422.456,303.079,420.251,300.874,417.54,300.874z"/>
		<path style="fill:#92E3A9;stroke:#263238;stroke-linecap:round;stroke-linejoin:round;stroke-miterlimit:10;" d="M434.727,300.874
			c-2.71,0-4.915,2.205-4.915,4.915c0,2.71,2.205,4.916,4.915,4.916c2.711,0,4.915-2.206,4.915-4.916
			C439.643,303.079,437.438,300.874,434.727,300.874z"/>
	</g>
</g>
<g id="Pointer">
	<g>
		<path style="fill:#272069;stroke:#272069;stroke-miterlimit:10;" d="M460.512,301.405l-21.254-9.445
			c-1.29-0.408-2.537,0.733-2.246,2.054l7.517,22.01c0.292,1.321,1.904,1.831,2.902,0.918l3.081-2.818l6.047,6.611
			c0.515,0.563,1.389,0.602,1.952,0.087l5.537-5.064c0.563-0.515,0.602-1.389,0.087-1.952l-6.047-6.611l3.08-2.818
			C462.167,303.464,461.802,301.813,460.512,301.405z"/>
		<path style="fill:#FFFFFF;stroke:#272069;stroke-miterlimit:10;" d="M459.927,298.48l-21.254-9.445
			c-1.29-0.408-2.538,0.733-2.246,2.054l7.517,22.01c0.292,1.321,1.904,1.831,2.902,0.918l3.081-2.818l6.047,6.611
			c0.515,0.563,1.389,0.602,1.952,0.087l5.537-5.064c0.563-0.515,0.602-1.389,0.087-1.952l-6.047-6.611l3.081-2.818
			C461.582,300.539,461.217,298.888,459.927,298.48z"/>
	</g>
</g>
<g id="Button">
	<g>
		<path style="fill:#92E3A9;stroke:#263238;stroke-miterlimit:10;" d="M460.616,67.424h-41.571c-8.86,0-16.042-7.182-16.042-16.042
			l0,0c0-8.86,7.182-16.042,16.042-16.042h41.571c8.86,0,16.042,7.182,16.042,16.042l0,0
			C476.658,60.242,469.475,67.424,460.616,67.424z"/>
		
			<circle style="fill:#FFFFFF;stroke:#263238;stroke-linecap:round;stroke-linejoin:round;stroke-miterlimit:10;" cx="418.563" cy="51.382" r="14.259"/>
	</g>
</g>
<g id="Frames">
	<g>
		<g>
			
				<rect x="31.559" y="332.237" style="fill:#FFFFFF;stroke:#263238;stroke-linecap:round;stroke-linejoin:round;stroke-miterlimit:10;" width="107.907" height="82.563"/>
		</g>
		
			<line style="fill:none;stroke:#263238;stroke-linecap:round;stroke-linejoin:round;stroke-miterlimit:10;" x1="31.559" y1="414.8" x2="139.466" y2="332.237"/>
		
			<line style="fill:none;stroke:#263238;stroke-linecap:round;stroke-linejoin:round;stroke-miterlimit:10;" x1="31.559" y1="332.237" x2="139.466" y2="414.8"/>
	</g>
	<g>
		<g>
			
				<rect x="77.139" y="429.563" style="fill:#FFFFFF;stroke:#263238;stroke-linecap:round;stroke-linejoin:round;stroke-miterlimit:10;" width="62.327" height="42.704"/>
		</g>
		
			<line style="fill:none;stroke:#263238;stroke-linecap:round;stroke-linejoin:round;stroke-miterlimit:10;" x1="77.139" y1="472.267" x2="139.466" y2="429.563"/>
		
			<line style="fill:none;stroke:#263238;stroke-linecap:round;stroke-linejoin:round;stroke-miterlimit:10;" x1="77.139" y1="429.563" x2="139.466" y2="472.267"/>
	</g>
</g>
<g id="Bars">
	<g>
		<path style="fill:#92E3A9;stroke:#263238;stroke-linecap:round;stroke-linejoin:round;stroke-miterlimit:10;" d="M135.922,308.886
			H35.368c-1.602,0-2.901-1.299-2.901-2.901l0,0c0-1.602,1.299-2.901,2.901-2.901h100.553c1.602,0,2.9,1.299,2.9,2.901l0,0
			C138.822,307.588,137.523,308.886,135.922,308.886z"/>
		
			<circle style="fill:#FFFFFF;stroke:#263238;stroke-linecap:round;stroke-linejoin:round;stroke-miterlimit:10;" cx="121.409" cy="305.986" r="6.903"/>
		<path style="fill:#92E3A9;stroke:#263238;stroke-linecap:round;stroke-linejoin:round;stroke-miterlimit:10;" d="M135.922,288.451
			H35.368c-1.602,0-2.901-1.299-2.901-2.901l0,0c0-1.602,1.299-2.901,2.901-2.901h100.553c1.602,0,2.9,1.299,2.9,2.901l0,0
			C138.822,287.153,137.523,288.451,135.922,288.451z"/>
		
			<circle style="fill:#FFFFFF;stroke:#263238;stroke-linecap:round;stroke-linejoin:round;stroke-miterlimit:10;" cx="73.091" cy="285.551" r="6.903"/>
		<path style="fill:#92E3A9;stroke:#263238;stroke-linecap:round;stroke-linejoin:round;stroke-miterlimit:10;" d="M135.922,268.016
			H35.368c-1.602,0-2.901-1.299-2.901-2.901l0,0c0-1.602,1.299-2.901,2.901-2.901h100.553c1.602,0,2.9,1.299,2.9,2.901l0,0
			C138.822,266.718,137.523,268.016,135.922,268.016z"/>
		<path style="fill:#FFFFFF;stroke:#263238;stroke-linecap:round;stroke-linejoin:round;stroke-miterlimit:10;" d="M101.564,265.116
			c0-3.812-3.09-6.903-6.903-6.903c-3.812,0-6.903,3.09-6.903,6.903c0,3.812,3.09,6.903,6.903,6.903
			C98.474,272.018,101.564,268.928,101.564,265.116z"/>
	</g>
</g>
<g id="Icon">
	<g>
		<path style="fill:#263238;" d="M81.43,62.48L65.455,51.234v-6.411L81.43,33.575v7.042l-10.248,7.41l10.248,7.41V62.48z"/>
		<path style="fill:#263238;" d="M86.58,66.999l12.718-42.568h4.677l-12.77,42.568H86.58z"/>
		<path style="fill:#263238;" d="M108.968,62.48v-7.042l10.301-7.462l-10.301-7.357v-7.042l16.029,11.247v6.411L108.968,62.48z"/>
	</g>
</g>
<g id="Robot">
	<g>
		<g>
			
				<line style="fill:none;stroke:#263238;stroke-width:7;stroke-linecap:round;stroke-linejoin:round;stroke-miterlimit:10;" x1="296.237" y1="273.176" x2="330.604" y2="309.893"/>
			<g>
				<path style="fill:#263238;stroke:#263238;stroke-linecap:round;stroke-linejoin:round;stroke-miterlimit:10;" d="M361.589,244.8
					c0,0,0.748-6.422,4.289-8.577c7.754-4.72,14.035-1.949,16.375-3.119c2.339-1.17,7.408-5.068,9.357-3.119
					c1.949,1.949-1.559,5.458-1.559,5.458c-0.841,0.845,10.794,2.078,13.645,0c0.996-0.726,5.848-5.458,7.797-3.119
					c1.949,2.339-1.56,9.357-1.56,9.357s-4.289,4.678-8.577,6.628c-4.288,1.949-9.747,3.509-14.035,3.509
					c-4.289,0-13.315-1.793-13.315-1.793s-2.245,7.484-11.038,3.18C357.139,250.354,361.589,244.8,361.589,244.8z"/>
				<path style="fill:none;stroke:#919191;stroke-linecap:round;stroke-linejoin:round;stroke-miterlimit:10;" d="M371.056,244.578
					c0,0,5.089-4.071,8.579-4.071c3.49,0,13.377,2.617,14.249,2.908c0.872,0.291,5.234,0.436,5.234,0.436s6.834-5.961,9.015-6.252
					c2.181-0.291,1.69,1.443,1.745,2.763"/>
				<path style="fill:none;stroke:#919191;stroke-linecap:round;stroke-linejoin:round;stroke-miterlimit:10;" d="M401.445,239.344
					c0,0,6.688-5.234,8.724-5.089c2.036,0.145,1.599,2.181,1.599,2.181"/>
				<path style="fill:none;stroke:#919191;stroke-linecap:round;stroke-linejoin:round;stroke-miterlimit:10;" d="M390.049,235.443
					c0,0-1.836-0.026-3.581-0.171c-1.745-0.145-4.071-0.436-4.071-0.436"/>
			</g>
			<path style="fill:#263238;stroke:#263238;stroke-miterlimit:10;" d="M344.41,316.649c0-3.082-2.499-5.581-5.581-5.581
				c-3.082,0-5.581,2.499-5.581,5.581s2.499,5.581,5.581,5.581C341.911,322.23,344.41,319.732,344.41,316.649z"/>
			
				<line style="fill:none;stroke:#263238;stroke-width:7;stroke-linecap:round;stroke-linejoin:round;stroke-miterlimit:10;" x1="362.328" y1="258.783" x2="342.353" y2="307.25"/>
		</g>
		<g>
			
				<line style="fill:none;stroke:#263238;stroke-width:7;stroke-linecap:round;stroke-linejoin:round;stroke-miterlimit:10;" x1="215.944" y1="273.176" x2="181.577" y2="309.893"/>
			<g>
				<path style="fill:#263238;stroke:#263238;stroke-linecap:round;stroke-linejoin:round;stroke-miterlimit:10;" d="M150.592,244.8
					c0,0-0.748-6.422-4.288-8.577c-7.754-4.72-14.035-1.949-16.375-3.119c-2.339-1.17-7.408-5.068-9.357-3.119
					c-1.949,1.949,1.56,5.458,1.56,5.458c0.841,0.845-10.794,2.078-13.645,0c-0.996-0.726-5.848-5.458-7.797-3.119
					c-1.949,2.339,1.56,9.357,1.56,9.357s4.289,4.678,8.577,6.628c4.289,1.949,9.747,3.509,14.035,3.509s13.315-1.793,13.315-1.793
					s2.245,7.484,11.038,3.18C155.042,250.354,150.592,244.8,150.592,244.8z"/>
				<path style="fill:none;stroke:#919191;stroke-linecap:round;stroke-linejoin:round;stroke-miterlimit:10;" d="M141.125,244.578
					c0,0-5.089-4.071-8.578-4.071c-3.49,0-13.377,2.617-14.249,2.908s-5.234,0.436-5.234,0.436s-6.834-5.961-9.015-6.252
					c-2.181-0.291-1.69,1.443-1.745,2.763"/>
				<path style="fill:none;stroke:#919191;stroke-linecap:round;stroke-linejoin:round;stroke-miterlimit:10;" d="M110.736,239.344
					c0,0-6.688-5.234-8.724-5.089s-1.599,2.181-1.599,2.181"/>
				<path style="fill:none;stroke:#919191;stroke-linecap:round;stroke-linejoin:round;stroke-miterlimit:10;" d="M122.132,235.443
					c0,0,1.836-0.026,3.581-0.171c1.745-0.145,4.071-0.436,4.071-0.436"/>
			</g>
			<circle style="fill:#263238;stroke:#263238;stroke-miterlimit:10;" cx="173.352" cy="316.649" r="5.581"/>
			
				<line style="fill:none;stroke:#263238;stroke-width:7;stroke-linecap:round;stroke-linejoin:round;stroke-miterlimit:10;" x1="149.854" y1="258.783" x2="169.828" y2="307.25"/>
		</g>
		<path style="fill:#263238;stroke:#263238;stroke-miterlimit:10;" d="M289.314,282.457l-10.888-10.071l-6.471,6.296
			c-3.036-1.747-6.278-2.979-9.606-3.694l-0.846-9.199l-14.82,0.578l-0.124,9.029c-3.292,0.886-6.473,2.274-9.412,4.173
			l-7.095-5.901l-10.071,10.888l6.295,6.471c-1.747,3.036-2.979,6.278-3.695,9.606l-9.199,0.846l0.577,14.82l9.029,0.124
			c0.886,3.292,2.274,6.473,4.173,9.412l-5.9,7.096L232.148,343l6.471-6.295c3.036,1.748,6.278,2.979,9.606,3.695l0.846,9.199
			l14.82-0.578l0.124-9.028c3.292-0.886,6.473-2.274,9.412-4.173l7.096,5.901l10.071-10.888l-6.296-6.471
			c1.748-3.036,2.979-6.278,3.695-9.606l9.199-0.846l-0.578-14.82l-9.029-0.124c-0.886-3.292-2.274-6.473-4.173-9.412
			L289.314,282.457z M271.918,323.077c-8.496,9.185-22.828,9.743-32.013,1.248c-9.185-8.496-9.743-22.828-1.248-32.013
			c8.496-9.185,22.828-9.743,32.013-1.248C279.855,299.559,280.413,313.892,271.918,323.077z"/>
		<g>
			
				<ellipse transform="matrix(0.8508 -0.5256 0.5256 0.8508 -98.9879 196.4353)" style="fill:#263238;stroke:#263238;stroke-miterlimit:10;" cx="296.373" cy="272.507" rx="21.514" ry="21.514"/>
			<path style="fill:#FFFFFF;stroke:#263238;stroke-linecap:round;stroke-linejoin:round;stroke-miterlimit:10;" d="
				M312.425,263.114l-4.272-4.914l-3.124,2.439c-1.242-0.907-2.598-1.599-4.016-2.07l0.069-4.055l-6.495-0.454l-0.484,3.934
				c-1.479,0.23-2.933,0.684-4.307,1.373l-2.816-2.913l-4.914,4.272l2.439,3.124c-0.907,1.242-1.599,2.598-2.07,4.016l-4.055-0.069
				l-0.454,6.495l3.934,0.484c0.23,1.479,0.684,2.933,1.373,4.307l-2.913,2.816l4.272,4.914l3.124-2.439
				c1.242,0.907,2.598,1.599,4.016,2.07l-0.069,4.055l6.495,0.454l0.484-3.934c1.479-0.23,2.933-0.684,4.306-1.373l2.816,2.913
				l4.914-4.272l-2.439-3.124c0.907-1.242,1.599-2.598,2.07-4.016l4.055,0.069l0.454-6.495l-3.934-0.484
				c-0.23-1.479-0.684-2.933-1.373-4.307L312.425,263.114z M302.898,280.013c-4.145,3.604-10.427,3.165-14.031-0.98
				c-3.604-4.145-3.165-10.427,0.98-14.031c4.145-3.604,10.427-3.165,14.031,0.98C307.482,270.127,307.043,276.409,302.898,280.013z
				"/>
		</g>
		<g>
			
				<ellipse transform="matrix(0.1564 -0.9877 0.9877 0.1564 -88.1632 441.7952)" style="fill:#263238;stroke:#263238;stroke-miterlimit:10;" cx="214.54" cy="272.507" rx="21.514" ry="21.514"/>
			<path style="fill:#FFFFFF;stroke:#263238;stroke-linecap:round;stroke-linejoin:round;stroke-miterlimit:10;" d="
				M198.488,263.114l4.272-4.914l3.124,2.439c1.242-0.907,2.598-1.599,4.016-2.07l-0.069-4.055l6.495-0.454l0.484,3.934
				c1.479,0.23,2.933,0.684,4.306,1.373l2.816-2.913l4.914,4.272l-2.439,3.124c0.907,1.242,1.599,2.598,2.07,4.016l4.055-0.069
				l0.454,6.495l-3.934,0.484c-0.23,1.479-0.684,2.933-1.373,4.307l2.913,2.816l-4.272,4.914l-3.124-2.439
				c-1.242,0.907-2.598,1.599-4.016,2.07l0.069,4.055l-6.495,0.454l-0.484-3.934c-1.479-0.23-2.933-0.684-4.307-1.373l-2.816,2.913
				l-4.914-4.272l2.439-3.124c-0.907-1.242-1.599-2.598-2.07-4.016l-4.055,0.069l-0.454-6.495l3.934-0.484
				c0.23-1.479,0.684-2.933,1.373-4.307L198.488,263.114z M208.014,280.013c4.145,3.604,10.427,3.165,14.031-0.98
				c3.604-4.145,3.165-10.427-0.98-14.031c-4.145-3.604-10.427-3.165-14.031,0.98S203.869,276.409,208.014,280.013z"/>
		</g>
		<g>
			<path style="fill:#92E3A9;stroke:#263238;stroke-miterlimit:10;" d="M272.318,224.164h-34.062
				c-5.591,0-10.123-4.532-10.123-10.123v-47.776c0-5.591,4.532-10.123,10.123-10.123h34.062c5.591,0,10.123,4.532,10.123,10.123
				v47.776C282.441,219.632,277.909,224.164,272.318,224.164z"/>
			<g>
				<path style="fill:#263238;" d="M248.143,182.706c0,3.206-1.333,5.805-2.977,5.805c-1.644,0-2.977-2.599-2.977-5.805
					c0-3.206,1.333-5.805,2.977-5.805C246.81,176.901,248.143,179.5,248.143,182.706z"/>
				<path style="fill:#263238;" d="M269.279,182.706c0,3.206-1.333,5.805-2.977,5.805s-2.977-2.599-2.977-5.805
					c0-3.206,1.333-5.805,2.977-5.805S269.279,179.5,269.279,182.706z"/>
				<path style="fill:none;stroke:#263238;stroke-linecap:round;stroke-linejoin:round;stroke-miterlimit:10;" d="M236.91,193.595
					c3.028,7.159,10.116,12.182,18.378,12.182c8.262,0,15.35-5.023,18.378-12.182"/>
			</g>
		</g>
		<g>
			<path style="fill:#92E3A9;stroke:#263238;stroke-miterlimit:10;" d="M296.023,320.884h-81.471c-2.614,0-4.733-2.119-4.733-4.733
				v-76.329c0-2.614,2.119-4.733,4.733-4.733h81.471c2.614,0,4.733,2.119,4.733,4.733v76.329
				C300.756,318.764,298.637,320.884,296.023,320.884z"/>
			<polygon style="fill:#263238;stroke:#263238;stroke-miterlimit:10;" points="280.763,277.986 236.834,252.624 236.834,303.348 
							"/>
		</g>
		<path style="fill:#263238;stroke:#263238;stroke-miterlimit:10;" d="M301.897,384.465l-6.229-15.431l-9.58,3.291
			c-2.244-3.226-4.945-6.028-7.98-8.347l3.544-9.74l-15.316-6.507l-4.448,9.103c-3.765-0.676-7.657-0.79-11.549-0.27l-4.376-9.384
			l-15.431,6.229l3.291,9.58c-3.226,2.244-6.028,4.945-8.347,7.98l-9.74-3.544l-6.507,15.316l9.103,4.448
			c-0.676,3.765-0.79,7.657-0.27,11.549l-9.384,4.376l6.229,15.431l9.581-3.291c2.244,3.227,4.945,6.028,7.98,8.347l-3.544,9.74
			l15.316,6.507l4.448-9.103c3.765,0.676,7.657,0.79,11.549,0.27l4.376,9.384l15.431-6.229l-3.292-9.58
			c3.227-2.244,6.028-4.945,8.347-7.98l9.74,3.545l6.507-15.316l-9.103-4.448c0.676-3.765,0.79-7.657,0.27-11.549L301.897,384.465z
			 M264.802,417.36c-13.018,5.255-27.83-1.039-33.085-14.056c-5.255-13.018,1.039-27.83,14.056-33.085
			c13.018-5.255,27.83,1.039,33.085,14.057C284.113,397.292,277.819,412.105,264.802,417.36z"/>
	</g>
</g>
<g id="UX">
	<path style="fill:#263238;stroke:#263238;stroke-linecap:round;stroke-linejoin:round;stroke-miterlimit:10;" d="M472.258,217.643
		H324.684c-5.491,0-9.942-4.451-9.942-9.942V89.183c0-5.491,4.451-9.942,9.942-9.942h147.574c5.491,0,9.942,4.451,9.942,9.942
		v118.517C482.201,213.192,477.749,217.643,472.258,217.643z"/>
	<g>
		<path style="fill:#92E3A9;" d="M363.753,203.298c-7.648,0-13.598-1.402-17.846-4.207c-4.251-2.804-7.183-6.798-8.796-11.982
			c-1.615-5.183-2.422-11.387-2.422-18.611V98.643h18.356v72.022c0,3.231,0.211,6.268,0.638,9.115
			c0.424,2.848,1.422,5.143,2.995,6.884c1.571,1.743,3.93,2.613,7.075,2.613c3.314,0,5.714-0.87,7.202-2.613
			c1.486-1.741,2.464-4.036,2.932-6.884c0.466-2.846,0.701-5.884,0.701-9.115V98.643h18.229v69.855
			c0,7.224-0.809,13.428-2.422,18.611c-1.616,5.184-4.525,9.178-8.732,11.982C377.456,201.895,371.484,203.298,363.753,203.298z"/>
		<path style="fill:#92E3A9;" d="M401.102,201.895l20.777-54.813l-20.141-48.44h17.591l13.384,31.995l11.728-31.995h16.316
			l-19.886,52.009l21.416,51.244h-17.591l-14.659-34.672l-12.747,34.672H401.102z"/>
	</g>
</g>
<g id="UI">
	<path style="fill:#92E3A9;stroke:#263238;stroke-miterlimit:10;" d="M189.075,217.643H41.501c-5.491,0-9.942-4.451-9.942-9.942
		V89.183c0-5.491,4.451-9.942,9.942-9.942h147.574c5.491,0,9.942,4.451,9.942,9.942v118.517
		C199.018,213.192,194.566,217.643,189.075,217.643z"/>
	<g>
		<path style="fill:#263238;" d="M98.335,203.298c-7.648,0-13.598-1.402-17.846-4.207c-4.25-2.804-7.182-6.798-8.796-11.982
			c-1.615-5.183-2.422-11.387-2.422-18.611V98.643h18.356v72.022c0,3.231,0.211,6.268,0.638,9.115
			c0.424,2.848,1.422,5.143,2.996,6.884c1.572,1.743,3.93,2.613,7.075,2.613c3.314,0,5.715-0.87,7.202-2.613
			c1.485-1.741,2.464-4.036,2.932-6.884c0.466-2.846,0.701-5.884,0.701-9.115V98.643h18.229v69.855
			c0,7.224-0.809,13.428-2.422,18.611c-1.615,5.184-4.525,9.178-8.732,11.982C112.038,201.895,106.067,203.298,98.335,203.298z"/>
		<path style="fill:#263238;" d="M142.694,201.895V98.643h18.611v103.252H142.694z"/>
	</g>
</g>
</svg>
